<svg width="333" height="415" viewBox="0 0 333 415" fill="none" xmlns="http://www.w3.org/2000/svg">
<path d="M182.651 352.206C193.022 369.923 213.956 378.492 233.795 372.213C256.581 364.982 280.064 357.728 300.504 345.725C328.473 329.332 352.295 306.639 365.229 275.632C372.068 259.253 381.832 246.13 394.38 233.823C418.149 210.559 433.773 182.78 434.974 148.281C435.446 135.315 431.806 124.938 417.664 116.656C428.196 159.279 410.141 191.107 383.964 222.327C383.15 210.165 382.779 199.828 381.735 189.555C374.108 115.606 318.748 56.9675 247.315 44.7912C215.72 39.4244 186.319 48.5392 158.641 62.4334C104.126 89.7856 68.1513 135.546 39.6294 188.144C26.6593 212.073 18.6192 237.184 20.8405 264.835C23.2758 295.294 44.1974 320.4 72.5223 331.402C100.663 342.32 129.426 337.387 158.065 338.584C193.318 340.091 226.657 331.091 259.301 319.92C288.419 309.929 316.547 297.061 341.149 277.642C342.341 276.673 344.023 276.322 347.776 274.682C331.431 307.212 305.172 325.213 276.429 340.249C247.522 355.381 217.384 363.253 182.692 352.182L182.651 352.206ZM44.3664 232.557C54.4539 198.001 71.04 172.43 89.1647 148.071C114.935 113.47 147.28 87.6988 188.656 73.0527C231.058 58.0548 269.791 63.8369 305.918 88.4901C341.957 113.085 359.908 149.791 364.801 191.947C369.608 233.523 369.454 240.411 336.058 259.285C334.635 260.087 333.502 261.351 332.15 262.277C264.314 308.554 190.059 329.711 108.237 320.88C56.642 315.308 31.5906 277.918 44.3751 232.524L44.3664 232.557Z" fill="url(#paint0_linear_6_284)"/>
<path d="M211.75 197.002C220.613 192.524 228.665 188.18 236.929 184.3C255.215 175.71 273.887 168.239 294.703 170.305C300.746 170.903 306.906 172.177 312.602 174.262C327.702 179.764 341.412 175.671 354.947 169.224C373.079 160.575 391.867 156.116 411.89 160.826C430.505 165.208 447.767 160.846 464.952 153.993C474.298 150.267 483.991 147.294 493.742 144.804C507.606 141.271 518.053 148.935 528.827 156.116C532.708 158.703 538.694 160.286 543.155 159.417C557.057 156.734 570.689 152.68 585.48 148.877C572.022 165.44 555.937 175.054 535.025 173.162C528.924 172.602 522.455 168.702 517.493 164.668C509.885 158.491 502.045 157.12 493.163 159.919C480.902 163.799 468.602 167.583 456.572 172.1C441.646 177.698 426.662 177.582 411.369 174.436C394.049 170.865 377.617 173.837 361.937 181.656C345.409 189.898 328.822 194.068 310.266 187.196C293.254 180.903 275.992 182.022 259.463 190.458C245.619 197.524 231.581 204.164 217.697 211.152C212.696 213.662 207.521 216.326 202.443 212.523C197.693 208.952 195.724 203.894 196.843 197.485C198.774 186.578 196.496 184.957 185.779 187.119C166.76 190.979 151.023 201.442 135.073 211.577C128.296 215.882 121.731 220.534 114.76 224.492C112.327 225.881 108.735 226.48 106.071 225.843C103.812 225.302 100.857 222.658 100.49 220.554C100.123 218.488 102.035 214.878 104.005 213.739C121.885 203.315 139.843 193.026 158.09 183.296C165.311 179.436 173.132 176.096 181.087 174.32C201.285 169.822 209.337 175.942 211.712 197.041L211.75 197.002Z" fill="url(#paint1_linear_6_284)"/>
<defs>
<linearGradient id="paint0_linear_6_284" x1="451.353" y1="98.7392" x2="234.206" y2="457.334" gradientUnits="userSpaceOnUse">
<stop stop-color="#CC00FF"/>
<stop offset="1" stop-color="#8000FF"/>
</linearGradient>
<linearGradient id="paint1_linear_6_284" x1="585.48" y1="143.915" x2="454.852" y2="403.603" gradientUnits="userSpaceOnUse">
<stop stop-color="#CC00FF"/>
<stop offset="1" stop-color="#8000FF"/>
</linearGradient>
</defs>
</svg>
