<svg width="421" height="300" viewBox="0 0 421 300" fill="none" xmlns="http://www.w3.org/2000/svg">
<path d="M337.791 183.886C337.044 185.835 336.939 187.347 336.127 188.064C330.402 193.101 325.135 199.045 318.591 202.692C294.219 216.268 269.938 230.204 244.643 241.839C216.314 254.879 187.05 265.951 157.915 277.163C133.988 286.375 109.447 293.748 84.0275 297.734C64.0179 300.873 44.1018 300.214 24.5197 295.254C14.194 292.637 5.45518 287.604 1.70913 276.437C-1.48514 266.915 2.41101 258.826 6.38759 250.905C15.5912 232.493 29.3283 217.485 43.9742 203.305C51.9995 195.537 60.1049 187.822 68.5831 180.552C81.2764 169.677 94.0017 158.799 107.285 148.689C124.702 135.433 142.514 122.691 160.482 110.189C171.031 102.861 181.893 95.8153 193.247 89.8535C201.118 85.7216 208.008 80.1768 215.883 76.2241C222.79 72.7476 229.972 69.8051 236.88 66.3285C238.577 65.4804 239.454 63.0109 241.148 62.0989C251.945 56.2614 262.745 50.3724 273.847 45.1502C276.298 43.9993 278.835 43.3428 280.857 41.3343C281.488 40.7058 282.936 40.8598 284.013 40.7164C285.045 40.5821 286.082 40.5117 287.116 40.4093C286.899 39.7756 286.69 39.1543 286.473 38.5206C288.447 38.0077 290.401 37.4898 292.837 36.8587C294.237 35.7535 295.991 33.3387 298.184 32.8316C306.283 30.96 312.448 25.2228 320.2 22.5783C328.148 19.8704 335.633 15.8456 343.455 12.7482C359.828 6.26503 376.639 1.02965 394.29 0.406575C400.443 0.18653 407.295 2.1529 412.789 5.06809C420.595 9.20502 422.257 22.8451 417.704 32.6663C411.029 47.0778 400.41 58.5039 389.666 69.7712C363.941 96.7321 334.361 119.254 305.429 142.556C276.633 165.748 246.328 186.758 214.455 205.424C196.773 215.781 178.579 225.279 160.462 234.881C157.154 236.642 153.164 237.28 149.402 237.967C145.24 238.737 142.833 236.662 142.101 232.466C141.303 227.928 144.755 227.535 147.554 227.189C158.784 225.804 168.812 221.333 178.361 215.573C204.339 199.898 230.501 184.513 256.147 168.321C268.146 160.749 279.362 151.849 290.519 143.048C311.311 126.656 332.388 110.528 352.29 93.0826C372.54 75.3208 392.657 57.1571 406.922 33.7938C408.383 31.4163 409.621 28.854 410.553 26.2208C414.431 15.4034 410.978 10.9141 400.17 8.83988C389.004 6.69161 378.049 9.58539 367.686 13.2754C349.898 19.6027 331.989 25.9502 314.979 34.0553C287.414 47.1821 260.159 61.1035 233.448 75.8819C208.87 89.4776 184.676 103.908 161.193 119.313C125.616 142.642 91.9251 168.577 61.1373 198.048C45.6556 212.875 30.5162 228.066 19.3375 246.53C15.8337 252.314 12.9999 258.684 10.9806 265.146C8.21546 274.017 11.9846 280.287 20.5491 283.871C31.7405 288.561 43.5803 289.495 55.489 290.291C80.5121 291.961 104.1 285.204 127.553 277.784C139.825 273.899 152.133 270.076 164.197 265.602C177.965 260.49 191.498 254.772 205.069 249.147C214.633 245.193 224.188 241.194 233.546 236.797C248.118 229.951 262.674 223.048 276.943 215.619C293.699 206.901 310.115 197.539 326.748 188.579C329.917 186.865 333.395 185.715 337.777 183.861L337.791 183.886Z" fill="url(#paint0_linear_6_254)"/>
<defs>
<linearGradient id="paint0_linear_6_254" x1="395.817" y1="-27.7969" x2="284.553" y2="416.617" gradientUnits="userSpaceOnUse">
<stop stop-color="#CC00FF"/>
<stop offset="1" stop-color="#8000FF"/>
</linearGradient>
</defs>
</svg>
