<svg width="87" height="85" viewBox="0 0 87 85" fill="none" xmlns="http://www.w3.org/2000/svg">
<path d="M39.1425 37.5134C47.7876 27.4662 55.8574 17.4909 64.6464 8.20661C67.8685 4.80955 72.8024 3.03905 77.4774 0.203369C79.0885 7.9763 76.5136 12.4385 72.1695 16.9727C64.0854 25.4222 56.6917 34.5338 48.6507 43.7894C59.5398 49.3743 69.681 54.5275 79.7789 59.7958C81.764 60.8322 84.195 61.883 85.2595 63.6391C86.4965 65.6687 86.4822 68.4756 87 70.9514C84.6553 71.2825 81.8216 72.6356 80.0522 71.7719C69.0049 66.4316 58.1158 60.7459 47.3561 54.8298C44.0045 52.9873 42.4366 53.3472 40.1638 56.4995C35.4601 63.0633 30.7707 69.3393 28.6993 77.5152C26.9732 84.3093 24.5278 85.173 19.9535 83.4169C14.7894 81.4305 13.0777 78.5084 15.6957 73.6288C19.4069 66.6907 23.9524 60.1845 28.239 53.5631C29.7494 51.2168 31.5331 49.0433 33.2448 46.7402C23.4202 40.0756 13.8544 33.5982 4.28868 27.1207C1.81454 25.451 -1.23499 23.8532 0.519927 20.1971C2.26046 16.5985 6.73406 15.8644 10.5604 18.3978C19.5076 24.2995 28.3541 30.3595 37.2437 36.3331C37.8191 36.7217 38.4377 37.0672 39.1281 37.4846L39.1425 37.5134Z" fill="url(#paint0_linear_6_283)"/>
<defs>
<linearGradient id="paint0_linear_6_283" x1="87" y1="0.203369" x2="-16.4413" y2="36.2904" gradientUnits="userSpaceOnUse">
<stop stop-color="#CC00FF"/>
<stop offset="1" stop-color="#8000FF"/>
</linearGradient>
</defs>
</svg>
