<svg width="435" height="163" viewBox="0 0 435 163" fill="none" xmlns="http://www.w3.org/2000/svg">
<path d="M419.572 113.291C431.715 113.291 433.627 117.498 433.627 123.521C433.627 125.625 433.245 128.206 433.149 130.214C433.149 131.074 432.575 131.552 431.619 131.552C431.141 131.552 430.567 131.17 430.281 130.596C426.361 124.669 418.999 120.557 412.306 120.557C409.055 120.557 407.047 121.992 407.047 124.191C407.047 127.154 412.88 128.875 418.138 130.501C424.735 132.604 430.854 134.994 433.436 140.349C434.201 142.07 434.487 143.982 434.487 145.894C434.487 148.571 433.818 151.057 432.288 153.16C428.082 159.279 418.903 162.148 410.585 162.148C398.06 162.052 395.67 157.367 395.67 150.196C395.67 148.475 395.67 145.99 395.957 143.982C395.957 143.026 396.722 142.643 397.487 142.643C398.156 142.643 398.538 142.93 398.825 143.408C403.414 150.674 412.306 154.881 419.286 154.881C422.441 154.881 424.353 153.543 424.353 151.344C424.353 147.997 419.094 146.372 413.549 144.651C407.239 142.643 400.833 140.062 398.251 134.612C397.486 132.891 397.008 130.979 397.008 129.067C397.008 126.581 397.773 124.095 399.207 121.896C403.127 116.255 411.541 113.291 419.572 113.291Z" fill="url(#paint0_linear_693_1066)"/>
<path d="M331.184 117.402L331.375 108.606C331.375 105.164 330.132 102.009 326.212 101.531C325.352 101.435 324.874 100.766 324.874 99.9054C324.874 98.758 325.639 97.9932 326.595 97.9932H354.13C354.991 97.9932 355.66 98.758 355.66 99.8098C355.66 100.67 355.182 101.435 354.226 101.531C350.497 101.913 348.585 103.73 348.394 108.606L348.011 119.505V132.317C348.011 137.862 348.776 143.025 351.358 146.754C353.844 150.196 357.859 152.013 362.162 152.013C366.56 152.013 370.671 150.1 373.061 146.563C374.782 144.077 375.643 140.922 376.025 137.671C376.694 131.265 376.885 123.903 376.885 117.498V108.51C376.885 104.208 375.165 102.104 371.149 101.531C370.097 101.435 369.619 100.67 369.619 99.8098C369.619 98.758 370.193 97.9932 371.245 97.9932H390.653C391.609 97.9932 392.183 98.758 392.183 99.8098C392.183 100.67 391.801 101.435 390.749 101.531C386.829 102.296 384.821 104.208 384.821 108.606V117.593C384.821 123.999 384.726 130.787 383.865 137.002C383.387 140.157 382.622 143.312 381.475 146.085C377.077 156.698 367.611 162.052 356.329 162.147C345.908 162.147 336.634 157.845 333.096 147.806C331.471 143.121 330.897 137.48 330.897 131.17C330.897 127.919 331.088 120.94 331.184 117.402Z" fill="url(#paint1_linear_693_1066)"/>
<path d="M266.277 146.563L267.042 123.426C267.042 122.947 266.85 122.852 266.277 122.852H259.967C259.106 122.756 258.819 121.8 258.724 120.557C258.724 119.314 259.01 118.071 260.062 117.88C268.858 115.49 275.36 110.231 278.706 102.296C278.993 101.531 280.331 101.148 281.479 101.148C282.817 101.148 283.965 101.626 283.965 102.678L283.487 114.916C283.487 115.299 283.678 115.586 284.156 115.586H297.254C298.497 115.681 298.88 116.733 298.88 118.071C298.88 119.601 298.306 121.226 297.063 121.322L283.391 122.756L282.722 141.878C282.722 144.938 283.2 147.328 284.73 148.953C286.259 150.579 288.554 151.344 290.944 151.344C292.856 151.344 294.769 150.866 296.585 149.623C296.872 149.527 297.35 149.336 297.637 149.336C298.593 149.336 299.262 150.101 299.262 151.152C299.262 151.726 299.071 152.108 298.784 152.586C295.247 158.227 287.98 162.147 281.096 162.147C276.029 162.147 272.013 160.618 269.528 157.654C267.233 154.977 266.277 151.152 266.277 146.563Z" fill="url(#paint2_linear_693_1066)"/>
<path d="M234.529 137.002L234.72 128.875C234.72 125.146 232.521 123.425 228.027 123.425C227.549 123.139 227.167 122.374 227.167 121.704C227.167 120.748 227.645 119.601 229.27 119.41C233.477 118.836 239.501 116.637 242.847 114.534C244.377 113.673 245.811 113.004 247.627 113.004C248.87 113.004 250.591 113.482 251.643 114.438L250.496 146.18C250.496 150.1 251.643 152.778 253.842 153.925C254.607 154.307 255.563 154.69 256.328 154.881C256.901 155.072 257.188 155.55 257.188 156.22C257.188 156.793 256.806 157.271 256.423 157.654C253.651 160.044 248.87 161.669 244.568 161.669C238.736 161.669 234.624 158.61 234.624 152.873C234.624 152.204 234.624 151.535 234.72 150.865C234.72 150.579 234.624 150.483 234.529 150.483C234.338 150.483 234.242 150.579 234.242 150.77C231.565 157.654 224.203 162.147 217.415 162.147C206.42 162.147 202.595 155.072 202.595 144.938L203.169 128.875C203.169 125.146 200.97 123.425 196.476 123.425C195.807 123.139 195.52 122.374 195.52 121.704C195.52 120.748 195.998 119.601 197.623 119.41C201.926 118.836 207.758 116.637 211.104 114.534C212.634 113.673 214.068 113.004 215.789 113.004C217.128 113.004 218.944 113.482 219.805 114.438L218.944 140.731C218.944 145.607 219.422 151.535 226.02 151.535C233.095 151.535 234.433 144.173 234.529 137.002Z" fill="url(#paint3_linear_693_1066)"/>
<path d="M167.862 113.387C184.211 113.387 191.764 123.999 191.764 135.281C191.764 148.38 181.916 162.052 162.795 162.052C146.158 162.052 138.892 151.822 138.892 140.54C138.892 127.441 148.931 113.387 167.862 113.387ZM161.647 120.749C155.719 120.749 153.616 126.198 153.616 132.604C153.616 142.356 160.213 154.69 168.914 154.69C174.459 154.69 176.849 149.91 176.849 144.077C176.849 134.134 170.73 120.749 161.647 120.749Z" fill="url(#paint4_linear_693_1066)"/>
<path d="M113.356 113.291C126.646 113.291 133.051 124.095 133.051 135.09C133.051 150.579 121.769 162.052 104.273 162.148C100.353 162.148 96.5285 161.67 92.4173 160.905C89.8358 160.427 88.306 160.044 86.3939 160.044C84.4817 160.044 82.5695 160.714 81.1353 161.287C80.6573 161.479 79.988 161.574 79.6056 161.574C78.1714 161.574 77.1197 161 77.1197 159.566C77.1197 159.184 77.2153 158.706 77.3109 158.037C78.4582 154.595 78.7451 150.675 79.0319 143.6L80.3704 106.885C80.3704 103.061 77.3109 101.914 74.1558 101.914C73.4865 101.531 73.1997 100.958 73.1997 100.097C73.1997 99.2366 73.6777 98.1849 75.3031 97.9937C79.6056 97.3244 84.8641 95.0298 88.1148 93.2132C89.6446 92.2571 91.0787 91.4922 92.9909 91.4922C94.2338 91.4922 95.9548 91.9702 96.9109 92.9263L96.2417 112.813C96.0504 117.211 96.146 119.984 95.3812 124.382C95.3812 124.669 95.4768 124.764 95.5724 124.764C95.668 124.764 95.668 124.669 95.7636 124.478C99.4924 117.211 106.185 113.291 113.356 113.291ZM104.751 124C97.389 124 95.9548 131.84 95.668 139.01L95.1899 151.344C95.1899 152.109 95.3812 152.396 95.9548 152.778C98.7275 154.881 102.169 156.124 105.229 156.124C112.304 156.124 117.276 150.961 117.276 141.496C117.276 132.509 112.687 124 104.751 124Z" fill="url(#paint5_linear_693_1066)"/>
<path d="M39.3759 97.4199C43.3915 97.4199 46.8334 97.9936 47.3115 99.3321L64.6168 147.997C66.1466 152.3 68.0588 155.359 72.6481 157.272C73.4129 157.654 74.4646 158.228 74.4646 159.279C74.4646 160.427 73.6042 161 72.6481 161H43.1046C42.1485 161 41.4793 160.236 41.4793 159.279C41.4793 158.515 42.0529 157.654 43.009 157.463C45.3993 157.176 47.5983 156.029 47.5983 153.16C47.5983 152.396 47.4071 151.535 47.1202 150.675L44.4432 143.026C44.252 142.261 43.9651 142.07 43.2002 142.07H26.3729C23.1222 142.07 20.4451 143.026 19.2022 146.085L17.0032 151.439C16.7163 152.204 16.5251 153.065 16.5251 153.734C16.5251 156.794 19.2978 157.463 21.7837 157.463C22.8354 157.463 23.3134 158.323 23.3134 159.184C23.3134 160.14 22.7398 161 21.7837 161H2.5661C1.32317 161 0.749512 160.236 0.749512 159.375C0.749512 158.61 1.13195 157.845 2.18366 157.463C6.96415 155.837 8.68512 152.587 10.3105 148.571L30.0061 99.6189C30.6754 97.9936 34.691 97.4199 39.3759 97.4199ZM30.5798 116.733L23.409 134.995C23.2178 135.281 23.2178 135.377 23.2178 135.568C23.2178 135.759 23.409 135.759 23.6002 135.759H40.1407C41.1924 135.759 41.4793 135.473 41.4793 134.803C41.4793 134.421 41.3837 134.038 41.2881 133.56L35.7427 117.498C34.7866 114.63 34.0217 112.239 33.4481 109.371C33.4481 109.18 33.3524 109.084 33.2568 109.084C33.1612 109.084 33.0656 109.18 33.0656 109.371C32.3963 111.761 31.5359 114.247 30.5798 116.733Z" fill="url(#paint6_linear_693_1066)"/>
<path d="M243.26 26.6686C246.607 19.4022 253.013 15.291 259.801 15.291C270.796 15.291 275.003 22.3661 275.003 32.5008L274.333 50.3798C274.333 54.9691 274.62 58.6978 278.349 59.4627C279.21 59.6539 279.783 60.2276 279.783 61.1837C279.783 62.331 278.923 63.0003 278.062 63.0003H253.108C252.152 63.0003 251.578 62.4266 251.578 61.3749C251.578 60.4188 252.152 59.7496 253.013 59.4627C257.602 57.933 257.984 53.3437 258.175 48.85L258.654 36.7076C258.654 32.0227 258.08 25.5213 251.578 25.5213C244.503 25.5213 243.356 33.2657 243.069 40.4364L242.687 51.5271C242.687 55.8296 243.356 58.7935 246.702 59.4627C247.563 59.6539 248.041 60.2276 248.041 61.1837C248.041 62.331 247.18 63.0003 246.32 63.0003H221.366C220.505 63.0003 219.836 62.4266 219.836 61.3749C219.836 60.4188 220.41 59.7496 221.27 59.4627C225.764 57.6461 226.337 53.2481 226.529 48.85L227.198 31.3535C227.198 27.7203 225.477 25.9037 220.888 25.9037C220.41 25.5213 220.123 24.9476 220.123 24.1827C220.123 23.2266 220.601 22.0793 222.226 21.8881C226.529 21.3144 231.883 19.1154 235.133 17.2032C236.663 16.2471 238.097 15.4822 239.914 15.4822C241.253 15.4822 242.4 15.9603 243.356 16.9164L242.782 26.573C242.782 26.8598 242.878 26.9554 242.973 26.9554C243.069 26.9554 243.165 26.8598 243.26 26.6686Z" fill="white"/>
<path d="M192.947 15.482C194.286 15.482 195.529 15.96 196.485 16.9161L195.911 26.5727C195.911 26.8595 196.007 26.9551 196.102 26.9551C196.198 26.9551 196.294 26.8595 196.389 26.6683C199.449 20.7405 206.237 15.0039 211.113 15.0039C214.651 15.0039 215.224 19.7844 215.224 27.0507C215.224 30.7795 214.555 34.5083 211.782 34.5083C210.54 34.5083 209.201 34.0303 208.149 33.361C205.759 32.2137 202.986 30.0146 200.309 30.0146C197.441 30.0146 196.294 32.7873 196.198 35.7512L195.72 49.1366C195.72 55.3512 198.971 58.2195 206.333 59.4624C207.002 59.6537 207.671 60.2273 207.671 61.1834C207.671 62.3307 206.811 63 205.95 63H174.017C173.156 63 172.487 62.4263 172.487 61.3746C172.487 60.4185 173.06 59.6537 173.921 59.4624C179.18 58.1239 179.466 53.439 179.562 48.8498L180.136 31.3532C180.136 27.72 178.606 25.9034 174.017 25.9034C173.539 25.521 173.156 24.9473 173.156 24.1824C173.156 23.2263 173.73 22.079 175.355 21.8878C179.562 21.3142 184.916 19.1151 188.262 17.2029C189.697 16.2468 191.226 15.482 192.947 15.482Z" fill="white"/>
<path d="M132.719 46.4599C132.719 50.4755 135.205 54.3955 139.507 54.3955C147.443 54.3955 147.73 45.695 147.73 41.5838V39.2892C147.73 39.0023 147.443 38.8111 147.156 38.8111C146.965 38.8111 146.582 39.0023 146.104 39.0979C141.515 40.4365 132.719 43.496 132.719 46.4599ZM131.38 26.4775C131.38 31.736 130.711 35.0823 127.46 35.0823C124.21 35.0823 119.334 32.214 119.334 29.0589C119.334 26.1906 122.68 23.0355 125.357 21.1233C130.807 17.2989 137.117 15.3867 143.618 15.3867C154.136 15.3867 163.888 20.8365 163.888 33.6482L163.314 50.1887C163.314 54.9692 165.417 57.3594 167.425 57.3594C168.095 57.3594 168.573 57.455 168.955 57.6462C169.337 57.8375 169.529 58.3155 169.529 58.7935C169.529 59.176 169.433 59.654 169.146 59.9409C167.234 62.0443 161.689 63.7653 157.482 63.7653C151.65 63.7653 147.634 61.0882 147.634 55.4472C147.634 55.3516 147.538 55.3516 147.347 55.3516C147.156 55.3516 146.965 55.3516 146.965 55.4472C144.192 60.9926 138.169 64.0521 131.954 64.0521C123.636 64.0521 117.899 58.2199 117.899 49.615C117.899 47.0335 118.186 45.9818 120.385 44.3565C124.975 41.0101 134.822 37.1857 146.391 34.7955C147.156 34.6043 147.73 34.7955 147.73 33.457C147.73 27.0511 142.089 24.1828 135.97 24.1828C135.014 24.1828 134.057 24.1828 133.293 24.374C132.145 24.5653 131.38 25.0433 131.38 26.4775Z" fill="white"/>
<path d="M91.8369 15.291C103.693 15.291 111.15 22.1749 111.15 29.9193C111.15 33.3613 109.238 36.4208 104.266 37.5681C98.434 39.0022 81.9891 41.01 78.4515 41.01C78.0691 41.01 77.8779 41.2013 77.8779 41.6793C78.3559 43.2091 78.9296 44.5476 79.9813 45.9817C83.3276 50.571 88.9686 52.8657 94.8964 52.8657C100.059 52.8657 105.222 50.9535 109.142 47.4159C109.429 47.0335 109.907 46.8422 110.385 46.8422C111.054 46.8422 111.819 47.3203 111.819 48.1808C111.819 48.372 111.819 48.6588 111.724 48.9457C108.091 58.1242 97.8603 64.1476 87.0564 64.1476C74.1491 64.052 63.8232 55.9252 63.8232 42.1574C63.8232 26.3818 76.7306 15.291 91.8369 15.291ZM85.9091 22.8442C79.5032 22.8442 76.1569 28.2939 76.1569 34.5086C76.1569 35.1778 76.2525 35.7515 76.3481 36.0383C76.4437 36.4208 76.6349 36.7076 77.113 36.7076C79.4076 36.7076 96.5218 33.6481 96.5218 32.5964C96.5218 30.2061 93.3667 22.8442 85.9091 22.8442Z" fill="white"/>
<path d="M30.5794 14.0478L29.3364 49.8059C29.3364 55.8293 32.9696 57.2634 38.4194 57.2634C43.9647 57.2634 48.554 55.7337 51.7091 52.4829C53.9081 50.4751 55.5335 47.798 56.394 44.8341C56.7764 43.7824 57.4457 43.1132 58.6886 43.1132C60.0272 43.1132 60.6964 44.0693 60.6964 45.599L59.5491 58.9844C59.3579 61.9483 56.9676 63.6693 53.7169 63.6693C50.3706 63.6693 42.0525 63 32.3959 63H6.77253C5.91204 63 5.33838 62.4263 5.33838 61.3746C5.33838 60.4185 5.81643 59.7493 6.67692 59.4624C11.2662 57.9327 12.0311 53.8215 12.2223 49.519L13.5608 11.4663C13.5608 7.83317 12.8915 4.10438 8.4935 3.53073C7.5374 3.43512 7.05935 2.76585 7.05935 1.90536C7.05935 0.758044 7.91984 -0.00683594 8.78033 -0.00683594H36.2203C37.0808 -0.00683594 37.6545 0.662437 37.6545 1.71414C37.6545 2.67024 37.1764 3.33951 36.3159 3.53073C31.3442 5.06048 30.675 9.74536 30.5794 14.0478Z" fill="white"/>
<defs>
<linearGradient id="paint0_linear_693_1066" x1="346.315" y1="109.297" x2="45.1357" y2="257.03" gradientUnits="userSpaceOnUse">
<stop stop-color="#CC00FF"/>
<stop offset="1" stop-color="#8000FF"/>
</linearGradient>
<linearGradient id="paint1_linear_693_1066" x1="346.315" y1="109.297" x2="45.1357" y2="257.03" gradientUnits="userSpaceOnUse">
<stop stop-color="#CC00FF"/>
<stop offset="1" stop-color="#8000FF"/>
</linearGradient>
<linearGradient id="paint2_linear_693_1066" x1="346.315" y1="109.297" x2="45.1357" y2="257.03" gradientUnits="userSpaceOnUse">
<stop stop-color="#CC00FF"/>
<stop offset="1" stop-color="#8000FF"/>
</linearGradient>
<linearGradient id="paint3_linear_693_1066" x1="346.315" y1="109.297" x2="45.1357" y2="257.03" gradientUnits="userSpaceOnUse">
<stop stop-color="#CC00FF"/>
<stop offset="1" stop-color="#8000FF"/>
</linearGradient>
<linearGradient id="paint4_linear_693_1066" x1="346.315" y1="109.297" x2="45.1357" y2="257.03" gradientUnits="userSpaceOnUse">
<stop stop-color="#CC00FF"/>
<stop offset="1" stop-color="#8000FF"/>
</linearGradient>
<linearGradient id="paint5_linear_693_1066" x1="346.315" y1="109.297" x2="45.1357" y2="257.03" gradientUnits="userSpaceOnUse">
<stop stop-color="#CC00FF"/>
<stop offset="1" stop-color="#8000FF"/>
</linearGradient>
<linearGradient id="paint6_linear_693_1066" x1="346.315" y1="109.297" x2="45.1357" y2="257.03" gradientUnits="userSpaceOnUse">
<stop stop-color="#CC00FF"/>
<stop offset="1" stop-color="#8000FF"/>
</linearGradient>
</defs>
</svg>
