<svg width="195" height="86" viewBox="0 0 195 86" fill="none" xmlns="http://www.w3.org/2000/svg">
<path d="M3.78049 1.19629H28.2566C38.8693 1.19629 48.1434 0.718243 51.1073 0.718243C54.6449 0.718243 55.7922 2.43922 55.7922 5.68995L54.6449 16.1114C54.5493 17.45 53.88 18.1192 52.8283 18.1192C51.9678 18.1192 51.2985 17.6412 50.7249 16.5895C48.3346 11.2353 44.7971 8.46264 39.6341 7.31532C37.2439 6.55044 30.36 6.26361 26.8224 6.26361C26.1532 6.26361 25.7707 6.64605 25.7707 7.31532L25.1015 25.9592C25.1015 27.8714 25.8663 28.6363 27.7785 28.6363C29.5951 28.6363 35.7141 28.5407 37.3395 28.2539C40.6859 27.967 43.9366 27.3934 46.7093 26.4373C47.4741 26.1504 48.1434 25.9592 48.7171 25.9592C49.6732 25.9592 50.1512 26.4373 50.1512 27.5846L49.0995 35.6158C49.0995 36.7631 48.6215 37.7192 47.3785 37.7192C45.4663 37.7192 42.5024 36.2851 38.4868 35.6158C35.3317 34.7553 31.2205 34.5641 27.5873 34.5641C25.7707 34.5641 24.8146 35.807 24.719 37.3368L24.241 51.3914C24.241 57.2236 27.1093 60.0919 33.3239 60.7612C34.0888 60.7612 34.6624 61.4304 34.6624 62.3865C34.6624 63.5339 33.802 64.2031 32.9415 64.2031H1.86829C0.912195 64.2031 0.338537 63.6295 0.338537 62.5778C0.338537 61.6217 0.912195 60.9524 1.77268 60.6656C6.74439 59.0402 7.12683 54.5465 7.31805 50.1485L8.65659 12.4782C8.65659 8.84507 7.7961 5.30751 3.39805 4.73385C2.63317 4.63824 2.15512 3.96897 2.15512 3.10849C2.15512 1.96117 2.92 1.19629 3.78049 1.19629ZM87.7826 0.622635C91.7982 0.622635 95.2402 1.19629 95.7182 2.53483L113.024 51.2002C114.553 55.5026 116.466 58.5621 121.055 60.4743C121.82 60.8568 122.871 61.4304 122.871 62.4821C122.871 63.6295 122.011 64.2031 121.055 64.2031H91.5114C90.5553 64.2031 89.886 63.4382 89.886 62.4821C89.886 61.7173 90.4597 60.8568 91.4158 60.6656C93.806 60.3787 96.0051 59.2314 96.0051 56.3631C96.0051 55.5982 95.8138 54.7378 95.527 53.8773L92.8499 46.2285C92.6587 45.4636 92.3719 45.2724 91.607 45.2724H74.7797C71.529 45.2724 68.8519 46.2285 67.609 49.288L65.4099 54.6421C65.1231 55.407 64.9319 56.2675 64.9319 56.9368C64.9319 59.9963 67.7046 60.6656 70.1904 60.6656C71.2421 60.6656 71.7202 61.5261 71.7202 62.3865C71.7202 63.3426 71.1465 64.2031 70.1904 64.2031H50.9729C49.7299 64.2031 49.1563 63.4382 49.1563 62.5778C49.1563 61.8129 49.5387 61.048 50.5904 60.6656C55.3709 59.0402 57.0919 55.7895 58.7173 51.7739L78.4129 2.82166C79.0821 1.19629 83.0977 0.622635 87.7826 0.622635ZM78.9865 19.9358L71.8158 38.1973C71.6246 38.4841 71.6246 38.5797 71.6246 38.7709C71.6246 38.9621 71.8158 38.9621 72.007 38.9621H88.5475C89.5992 38.9621 89.886 38.6753 89.886 38.006C89.886 37.6236 89.7904 37.2412 89.6948 36.7631L84.1495 20.7007C83.1934 17.8324 82.4285 15.4421 81.8548 12.5739C81.8548 12.3826 81.7592 12.287 81.6636 12.287C81.568 12.287 81.4724 12.3826 81.4724 12.5739C80.8031 14.9641 79.9426 17.45 78.9865 19.9358ZM160.042 0.144587C180.024 0.144587 189.585 13.8168 189.585 28.9231C189.585 46.1329 177.156 64.1075 153.732 64.1075C133.462 64.1075 124.093 50.8178 124.093 35.9982C124.093 18.5017 137 0.144587 160.042 0.144587ZM153.158 8.74946C143.501 8.74946 139.295 16.8763 139.295 26.6285C139.295 39.9182 147.326 55.5026 160.52 55.5026C170.272 55.5026 174.479 47.567 174.479 38.006C174.479 24.6207 166.161 8.74946 153.158 8.74946ZM160.807 66.4021C170.272 66.4021 175.626 75.1982 184.996 75.1982C187.004 75.1982 189.107 74.9114 191.211 73.9553C191.88 73.5729 192.454 73.3817 193.027 73.3817C193.888 73.3817 194.461 73.9553 194.461 74.8158C194.461 75.2939 194.079 75.8675 193.792 76.5368C189.585 82.9426 183.658 85.5241 178.399 85.5241C165.109 85.5241 161.954 72.7124 152.489 72.7124C150.863 72.7124 150.003 73.0948 149.429 73.0948C148.664 73.0948 148.186 72.5212 148.186 71.9475C148.186 71.5651 148.473 70.9914 148.951 70.609C152.68 67.6451 156.791 66.4021 160.807 66.4021Z" fill="white"/>
</svg>
