<svg width="562" height="309" viewBox="0 0 562 309" fill="none" xmlns="http://www.w3.org/2000/svg">
<path d="M401.155 298.106L411.941 259.868C412.239 258.901 416.554 258.604 420.868 258.604C424.811 258.604 428.382 258.752 428.531 259.868L433.441 298.85C433.887 302.197 435.672 304.503 438.871 305.247C439.69 305.471 439.987 306.066 439.987 306.661C439.987 307.405 439.466 308 438.574 308H415.215C414.322 308 413.876 307.405 413.876 306.735C413.876 306.14 414.322 305.471 415.14 305.247C417.967 304.727 419.009 303.09 419.009 300.04C419.009 299.073 418.785 297.883 418.711 296.841L416.256 266.861C416.256 266.712 416.256 266.638 416.182 266.638C416.107 266.638 416.033 266.712 416.033 266.861L403.981 307.405C403.758 308 399.592 308.521 396.914 308.521C394.162 308.521 390.145 308.074 389.921 307.33L380.027 266.861C379.953 266.712 379.953 266.638 379.878 266.638C379.804 266.638 379.73 266.712 379.73 266.861C379.432 269.465 379.135 271.994 378.763 274.598L375.787 297.808C375.638 298.775 375.564 299.891 375.564 300.933C375.564 304.131 377.275 305.024 379.73 305.247C380.622 305.396 380.994 305.991 380.994 306.661C380.994 307.405 380.548 308 379.655 308H364.628C363.735 308 363.215 307.479 363.215 306.735C363.215 306.066 363.661 305.396 364.554 305.247C367.455 304.578 369.166 302.272 369.612 298.85L374.969 259.868C375.117 258.901 379.73 258.604 384.268 258.604C388.062 258.604 391.409 258.752 391.632 259.868L400.559 298.106C400.634 298.403 400.708 298.478 400.857 298.478C400.931 298.478 401.08 298.403 401.155 298.106Z" fill="url(#paint0_linear_693_1081)"/>
<path d="M321.188 258.975H340.01C348.193 258.975 354.293 258.604 357.938 258.604C360.616 258.604 361.658 260.017 361.658 262.249L360.765 270.506C360.616 271.697 360.095 272.143 359.351 272.143C358.756 272.143 358.161 271.771 357.715 270.953C355.855 266.787 353.177 264.704 349.085 263.811C347.226 263.216 341.944 262.918 339.191 262.918C338.67 262.918 338.299 263.216 338.299 263.662L337.778 278.094C337.778 279.508 338.373 280.177 339.861 280.177C341.274 280.177 346.035 280.028 347.3 279.805C349.904 279.582 352.433 279.136 354.59 278.466C355.111 278.317 355.706 278.169 356.153 278.169C356.897 278.169 357.194 278.541 357.194 279.359L356.45 285.533C356.376 286.352 356.078 287.096 355.111 287.096C353.475 287.096 351.243 285.98 348.193 285.533C345.663 284.864 342.39 284.79 339.563 284.79C338.299 284.79 337.629 285.682 337.555 286.724L337.034 299.817C337.034 302.792 338.447 304.206 342.241 304.206C343.952 304.206 347.151 303.908 348.937 303.462C352.879 302.42 356.599 300.486 358.98 296.023C359.351 295.353 359.947 294.981 360.616 294.981C361.434 294.981 361.881 295.576 361.881 296.543L361.286 304.95C361.137 307.33 359.351 308.521 356.897 308.521C355.632 308.521 345.217 308 339.042 308H319.701C318.957 308 318.51 307.553 318.51 306.735C318.51 305.991 318.882 305.471 319.626 305.247C323.495 303.983 323.792 300.486 323.941 297.064L324.982 267.754C324.982 264.927 324.313 262.174 320.891 261.728C320.296 261.654 319.924 261.133 319.924 260.463C319.924 259.571 320.519 258.975 321.188 258.975Z" fill="url(#paint1_linear_693_1081)"/>
<path d="M287.988 258.975H302.495C307.851 258.975 311.943 258.604 314.323 258.604C317.894 258.604 318.117 261.207 318.117 262.472C318.117 264.704 317.522 270.729 317.522 272.738C317.522 273.705 316.704 274.151 316.034 274.151C315.216 274.151 314.695 273.631 314.472 272.738C313.579 268.498 310.529 265.224 306.586 264.109C305.619 263.662 303.611 263.439 302.644 263.439C302.197 263.439 301.825 263.737 301.751 264.332L300.635 296.99C300.635 302.048 302.495 304.355 306.586 305.247C307.256 305.396 307.628 305.917 307.628 306.586C307.628 307.479 307.033 308 306.289 308H282.558C281.888 308 281.442 307.553 281.442 306.735C281.442 305.991 281.814 305.396 282.483 305.247C285.831 303.834 287.319 300.784 287.468 297.064L288.583 264.257C288.583 263.662 288.063 263.439 287.616 263.439C286.501 263.439 284.418 263.588 283.45 263.96C279.284 265.076 276.309 268.274 274.449 272.589C274.077 273.631 273.408 274.151 272.589 274.151C271.92 274.151 271.399 273.631 271.399 272.887L273.184 262.323C273.408 260.91 274.151 258.604 277.202 258.604C280.698 258.604 283.971 258.975 287.988 258.975Z" fill="url(#paint2_linear_693_1081)"/>
<path d="M254.146 258.157C260.619 258.157 266.57 259.868 266.57 265.299C266.57 267.159 265.752 271.771 265.752 272.961C265.752 273.631 265.231 273.928 264.561 273.928C264.041 273.928 263.594 273.631 263.371 273.184C260.321 268.126 255.188 264.406 249.385 264.332C247.749 264.332 245.815 264.778 244.327 265.596C242.839 266.489 241.797 267.903 241.797 269.688C241.797 271.325 242.765 272.44 244.104 273.408C246.856 275.342 251.245 276.606 254.593 277.871C261.511 280.475 268.504 283.971 268.504 292.229C268.504 301.974 259.875 308.893 245.889 308.893C238.227 308.893 231.085 306.958 231.085 300.858C231.085 299.594 231.829 294.089 231.829 293.047C231.829 292.526 232.35 292.154 233.019 292.154C233.54 292.154 234.061 292.378 234.284 292.75C238.152 298.552 243.955 302.644 251.096 302.644C252.956 302.644 254.965 302.123 256.453 301.081C257.717 300.189 258.61 298.998 258.61 297.362C258.61 295.725 257.643 294.535 256.304 293.568C253.403 291.559 248.939 290.295 245.294 288.881C238.747 286.277 231.903 282.781 231.903 274.523C231.903 264.332 241.872 258.157 254.146 258.157Z" fill="url(#paint3_linear_693_1081)"/>
<path d="M212.594 289.923L212.296 298.18C212.296 301.974 213.263 304.504 217.429 305.247C218.173 305.396 218.62 305.991 218.62 306.661C218.62 307.33 218.099 308 217.132 308H194.145C193.252 308 192.806 307.405 192.806 306.735C192.806 306.14 193.178 305.545 193.922 305.247C197.641 304.206 198.98 301.751 199.129 298.18L199.427 290.369C199.427 288.286 198.98 286.873 197.269 283.599L188.937 268.126C187.003 264.555 185.143 262.695 181.349 261.728C180.605 261.579 180.233 260.984 180.233 260.389C180.233 259.571 180.754 258.976 181.647 258.976H204.783C205.675 258.976 206.271 259.645 206.271 260.389C206.271 261.059 205.75 261.728 204.857 261.728C203.295 261.728 201.733 262.472 201.733 264.332C201.733 265.15 201.956 265.968 202.402 266.861L209.767 281.293H210.065L219.736 266.712C220.182 266.117 220.331 265.373 220.405 264.704C220.405 262.1 217.504 261.728 215.346 261.728C214.379 261.728 213.933 261.059 213.933 260.389C213.933 259.645 214.454 258.976 215.421 258.976H232.308C233.201 258.976 233.796 259.571 233.796 260.389C233.796 260.984 233.424 261.579 232.68 261.728C229.927 262.472 228.067 264.332 225.464 268.126L215.198 283.079C213.412 285.608 212.668 287.096 212.594 289.923Z" fill="url(#paint4_linear_693_1081)"/>
<path d="M166.46 258.157C172.932 258.157 178.883 259.868 178.883 265.299C178.883 267.159 178.065 271.771 178.065 272.961C178.065 273.631 177.544 273.928 176.875 273.928C176.354 273.928 175.908 273.631 175.685 273.184C172.635 268.126 167.501 264.406 161.699 264.332C160.062 264.332 158.128 264.778 156.64 265.596C155.152 266.489 154.111 267.903 154.111 269.688C154.111 271.325 155.078 272.44 156.417 273.408C159.17 275.342 163.559 276.606 166.906 277.871C173.825 280.475 180.818 283.971 180.818 292.229C180.818 301.974 172.188 308.893 158.202 308.893C150.54 308.893 143.398 306.958 143.398 300.858C143.398 299.594 144.142 294.089 144.142 293.047C144.142 292.526 144.663 292.154 145.333 292.154C145.853 292.154 146.374 292.378 146.597 292.75C150.466 298.552 156.268 302.644 163.41 302.644C165.27 302.644 167.278 302.123 168.766 301.081C170.031 300.189 170.923 298.998 170.923 297.362C170.923 295.725 169.956 294.535 168.617 293.568C165.716 291.559 161.253 290.295 157.607 288.881C151.061 286.277 144.217 282.781 144.217 274.523C144.217 264.332 154.185 258.157 166.46 258.157Z" fill="url(#paint5_linear_693_1081)"/>
<path d="M498.611 203.923L498.313 212.18C498.313 215.974 499.281 218.504 503.447 219.247C504.19 219.396 504.637 219.991 504.637 220.661C504.637 221.33 504.116 222 503.149 222H480.162C479.269 222 478.823 221.405 478.823 220.735C478.823 220.14 479.195 219.545 479.939 219.247C483.658 218.206 484.997 215.751 485.146 212.18L485.444 204.369C485.444 202.286 484.997 200.873 483.286 197.599L474.954 182.126C473.02 178.555 471.16 176.695 467.366 175.728C466.622 175.579 466.25 174.984 466.25 174.389C466.25 173.571 466.771 172.976 467.664 172.976H490.8C491.693 172.976 492.288 173.645 492.288 174.389C492.288 175.059 491.767 175.728 490.874 175.728C489.312 175.728 487.75 176.472 487.75 178.332C487.75 179.15 487.973 179.968 488.419 180.861L495.784 195.293H496.082L505.753 180.712C506.199 180.117 506.348 179.373 506.422 178.704C506.422 176.1 503.521 175.728 501.364 175.728C500.396 175.728 499.95 175.059 499.95 174.389C499.95 173.645 500.471 172.976 501.438 172.976H518.325C519.218 172.976 519.813 173.571 519.813 174.389C519.813 174.984 519.441 175.579 518.697 175.728C515.944 176.472 514.085 178.332 511.481 182.126L501.215 197.079C499.429 199.608 498.685 201.096 498.611 203.923Z" fill="white"/>
<path d="M444.692 172.604C454.586 172.604 462.918 176.323 462.918 185.845C462.918 194.252 455.033 199.161 447.668 199.831C447.37 199.905 447.37 199.98 447.37 200.054C447.37 200.129 447.37 200.203 447.594 200.501C451.164 203.997 454.735 207.196 458.752 210.692C462.398 213.817 466.34 216.718 470.432 218.578C470.953 218.801 471.25 219.099 471.25 219.694C471.25 220.438 470.73 220.884 470.06 221.033C467.159 222.074 463.885 222.818 460.612 222.818C455.628 222.818 451.239 221.33 448.338 218.801C444.246 215.156 441.642 210.395 438.964 204.815C437.625 202.063 436.435 200.575 434.129 200.575L433.682 212.18C433.682 216.941 435.616 218.578 439.634 219.247C440.378 219.396 440.898 219.991 440.898 220.661C440.898 221.405 440.378 222 439.41 222H416.275C415.605 222 415.159 221.553 415.159 220.735C415.159 219.991 415.531 219.471 416.2 219.247C420.069 217.983 420.515 214.561 420.589 211.064L421.556 181.903C421.556 179.076 421.036 176.174 417.539 175.728C416.944 175.654 416.498 175.133 416.498 174.463C416.572 173.571 417.167 172.975 417.837 172.975H428.996C432.566 172.975 440.378 172.604 444.692 172.604ZM439.262 197.227C445.139 197.227 449.156 194.028 449.156 188.449C449.156 181.084 442.758 176.844 436.212 176.844C435.319 176.844 434.947 177.29 434.873 178.332L434.277 194.921C434.352 196.483 435.765 197.227 439.262 197.227Z" fill="white"/>
<path d="M387.13 172.529C390.254 172.529 392.932 172.976 393.304 174.017L406.769 211.883C407.96 215.23 409.447 217.611 413.018 219.099C413.613 219.396 414.432 219.843 414.432 220.661C414.432 221.554 413.762 222 413.018 222H390.031C389.287 222 388.766 221.405 388.766 220.661C388.766 220.066 389.213 219.396 389.957 219.248C391.817 219.024 393.528 218.132 393.528 215.9C393.528 215.305 393.379 214.635 393.156 213.966L391.073 208.014C390.924 207.419 390.701 207.27 390.105 207.27H377.013C374.483 207.27 372.4 208.014 371.433 210.395L369.722 214.561C369.499 215.156 369.35 215.825 369.35 216.346C369.35 218.727 371.507 219.248 373.442 219.248C374.26 219.248 374.632 219.917 374.632 220.587C374.632 221.33 374.186 222 373.442 222H358.489C357.522 222 357.075 221.405 357.075 220.735C357.075 220.14 357.373 219.545 358.191 219.248C361.911 217.983 363.25 215.454 364.515 212.329L379.839 174.24C380.36 172.976 383.485 172.529 387.13 172.529ZM380.286 187.556L374.706 201.765C374.558 201.989 374.558 202.063 374.558 202.212C374.558 202.361 374.706 202.361 374.855 202.361H387.725C388.543 202.361 388.766 202.137 388.766 201.617C388.766 201.319 388.692 201.021 388.618 200.649L384.303 188.152C383.559 185.92 382.964 184.06 382.518 181.828C382.518 181.68 382.443 181.605 382.369 181.605C382.294 181.605 382.22 181.68 382.22 181.828C381.699 183.688 381.03 185.622 380.286 187.556Z" fill="white"/>
<path d="M332.377 172.975H346.883C352.239 172.975 356.331 172.604 358.712 172.604C362.282 172.604 362.506 175.207 362.506 176.472C362.506 178.704 361.91 184.729 361.91 186.738C361.91 187.705 361.092 188.151 360.423 188.151C359.604 188.151 359.084 187.631 358.86 186.738C357.968 182.498 354.918 179.224 350.975 178.109C350.008 177.662 347.999 177.439 347.032 177.439C346.586 177.439 346.214 177.737 346.139 178.332L345.023 210.99C345.023 216.048 346.883 218.355 350.975 219.247C351.644 219.396 352.016 219.917 352.016 220.586C352.016 221.479 351.421 222 350.677 222H326.946C326.277 222 325.83 221.553 325.83 220.735C325.83 219.991 326.202 219.396 326.872 219.247C330.219 217.834 331.707 214.784 331.856 211.064L332.972 178.257C332.972 177.662 332.451 177.439 332.005 177.439C330.889 177.439 328.806 177.588 327.839 177.96C323.673 179.076 320.697 182.274 318.837 186.589C318.465 187.631 317.796 188.151 316.978 188.151C316.308 188.151 315.787 187.631 315.787 186.887L317.573 176.323C317.796 174.91 318.54 172.604 321.59 172.604C325.086 172.604 328.36 172.975 332.377 172.975Z" fill="white"/>
<path d="M273.24 172.975H292.062C300.245 172.975 306.345 172.604 309.99 172.604C312.668 172.604 313.71 174.017 313.71 176.249L312.817 184.506C312.668 185.697 312.147 186.143 311.403 186.143C310.808 186.143 310.213 185.771 309.767 184.953C307.907 180.787 305.229 178.704 301.137 177.811C299.278 177.216 293.996 176.918 291.243 176.918C290.722 176.918 290.351 177.216 290.351 177.662L289.83 192.094C289.83 193.508 290.425 194.177 291.913 194.177C293.326 194.177 298.087 194.028 299.352 193.805C301.956 193.582 304.485 193.136 306.642 192.466C307.163 192.317 307.758 192.169 308.205 192.169C308.949 192.169 309.246 192.541 309.246 193.359L308.502 199.533C308.428 200.352 308.13 201.096 307.163 201.096C305.527 201.096 303.295 199.98 300.245 199.533C297.715 198.864 294.442 198.79 291.615 198.79C290.351 198.79 289.681 199.682 289.607 200.724L289.086 213.817C289.086 216.792 290.499 218.206 294.293 218.206C296.004 218.206 299.203 217.908 300.989 217.462C304.931 216.42 308.651 214.486 311.032 210.023C311.403 209.353 311.999 208.981 312.668 208.981C313.486 208.981 313.933 209.576 313.933 210.543L313.338 218.95C313.189 221.33 311.403 222.521 308.949 222.521C307.684 222.521 297.269 222 291.094 222H271.753C271.009 222 270.562 221.553 270.562 220.735C270.562 219.991 270.934 219.471 271.678 219.247C275.547 217.983 275.844 214.486 275.993 211.064L277.034 181.754C277.034 178.927 276.365 176.174 272.943 175.728C272.348 175.654 271.976 175.133 271.976 174.463C271.976 173.571 272.571 172.975 273.24 172.975Z" fill="white"/>
<path d="M236.437 174.463L252.506 200.649C255.705 205.782 256.226 209.428 256.374 209.428C256.523 209.428 256.374 207.419 256.598 201.691L257.267 182.349C257.267 178.332 255.333 176.174 252.134 175.728C251.39 175.654 250.944 175.059 250.944 174.389C250.944 173.645 251.39 172.976 252.208 172.976H266.864C267.682 172.976 268.128 173.571 268.128 174.389C268.128 175.059 267.756 175.654 266.938 175.728C264.26 176.546 263.367 178.332 263.218 181.977L261.879 221.405C261.879 222.223 259.276 222.595 255.779 222.595C253.622 222.595 251.688 222 249.977 220.512C248.414 219.173 247.15 217.388 245.439 214.635L229.891 189.491C227.882 186.217 227.213 183.837 227.064 183.837C226.915 183.837 226.99 185.473 226.915 188.524L226.097 212.701C226.097 216.941 228.329 218.727 231.676 219.247C232.42 219.396 232.792 219.991 232.792 220.735C232.792 221.405 232.42 222 231.602 222H215.98C215.087 222 214.492 221.405 214.492 220.735C214.492 220.14 214.864 219.545 215.682 219.247C219.327 218.132 219.997 215.9 220.145 212.18L221.187 182.2C221.187 179.15 220.145 176.621 216.649 175.728C215.905 175.579 215.533 174.984 215.533 174.389C215.533 173.645 216.054 172.976 216.947 172.976H233.982C235.173 172.976 235.842 173.496 236.437 174.463Z" fill="white"/>
<path d="M186.983 172.529C190.108 172.529 192.786 172.976 193.158 174.017L206.623 211.883C207.813 215.23 209.301 217.611 212.872 219.099C213.467 219.396 214.285 219.843 214.285 220.661C214.285 221.554 213.615 222 212.872 222H189.884C189.14 222 188.62 221.405 188.62 220.661C188.62 220.066 189.066 219.396 189.81 219.248C191.67 219.024 193.381 218.132 193.381 215.9C193.381 215.305 193.232 214.635 193.009 213.966L190.926 208.014C190.777 207.419 190.554 207.27 189.959 207.27H176.866C174.336 207.27 172.253 208.014 171.286 210.395L169.575 214.561C169.352 215.156 169.203 215.825 169.203 216.346C169.203 218.727 171.361 219.248 173.295 219.248C174.113 219.248 174.485 219.917 174.485 220.587C174.485 221.33 174.039 222 173.295 222H158.342C157.375 222 156.929 221.405 156.929 220.735C156.929 220.14 157.226 219.545 158.045 219.248C161.764 217.983 163.103 215.454 164.368 212.329L179.693 174.24C180.213 172.976 183.338 172.529 186.983 172.529ZM180.139 187.556L174.56 201.765C174.411 201.989 174.411 202.063 174.411 202.212C174.411 202.361 174.56 202.361 174.708 202.361H187.578C188.397 202.361 188.62 202.137 188.62 201.617C188.62 201.319 188.545 201.021 188.471 200.649L184.156 188.152C183.412 185.92 182.817 184.06 182.371 181.828C182.371 181.68 182.296 181.605 182.222 181.605C182.148 181.605 182.073 181.68 182.073 181.828C181.552 183.688 180.883 185.622 180.139 187.556Z" fill="white"/>
<path d="M135.824 183.911L134.856 211.734C134.856 216.421 137.683 217.536 141.924 217.536C146.238 217.536 149.809 216.346 152.264 213.817C153.975 212.255 155.24 210.172 155.909 207.865C156.207 207.047 156.728 206.526 157.695 206.526C158.736 206.526 159.257 207.27 159.257 208.461L158.364 218.875C158.216 221.182 156.356 222.521 153.826 222.521C151.223 222.521 144.751 222 137.237 222H117.3C116.63 222 116.184 221.554 116.184 220.735C116.184 219.991 116.556 219.471 117.226 219.247C120.796 218.057 121.392 214.858 121.54 211.511L122.582 181.903C122.582 179.076 122.061 176.174 118.639 175.728C117.895 175.654 117.523 175.133 117.523 174.463C117.523 173.571 118.193 172.976 118.862 172.976H140.213C140.882 172.976 141.329 173.496 141.329 174.315C141.329 175.059 140.957 175.579 140.287 175.728C136.419 176.918 135.898 180.564 135.824 183.911Z" fill="white"/>
<path d="M85.4589 212.478C85.4589 217.239 88.0626 218.652 92.8981 219.247C93.7164 219.322 94.0883 219.991 94.0883 220.661C94.0883 221.405 93.642 222 92.8237 222H68.0511C67.3816 222 66.8608 221.553 66.8608 220.735C66.8608 219.991 67.3072 219.471 67.9767 219.247C71.8451 217.983 72.2171 214.486 72.2915 211.064L73.2586 181.233C73.2586 178.629 72.3659 176.1 69.3158 175.728C68.6463 175.654 68.2743 175.133 68.2743 174.463C68.2743 173.571 68.9438 172.975 69.539 172.975H81.1441C84.8637 172.975 90.2943 172.604 97.5848 172.604C108.967 172.604 113.802 179.001 113.802 186.887C113.802 196.26 106.809 206.006 91.6334 206.006H85.682L85.4589 212.478ZM90.9639 201.616C97.5848 201.616 100.858 197.004 100.858 191.127C100.858 180.34 92.6749 176.695 87.9138 176.695C87.1699 176.695 86.6491 176.918 86.6491 177.662L85.9052 197.971C85.9052 199.087 86.2028 199.905 86.9467 200.501C87.9138 201.244 89.2528 201.616 90.9639 201.616Z" fill="white"/>
<path d="M538.006 97.9112L537.039 125.734C537.039 130.421 539.865 131.536 544.106 131.536C548.421 131.536 551.991 130.346 554.446 127.817C556.157 126.255 557.422 124.172 558.092 121.865C558.389 121.047 558.91 120.526 559.877 120.526C560.918 120.526 561.439 121.27 561.439 122.461L560.547 132.875C560.398 135.182 558.538 136.521 556.009 136.521C553.405 136.521 546.933 136 539.419 136H519.482C518.813 136 518.366 135.554 518.366 134.735C518.366 133.991 518.738 133.471 519.408 133.247C522.979 132.057 523.574 128.858 523.722 125.511L524.764 95.9026C524.764 93.0757 524.243 90.1744 520.821 89.7281C520.077 89.6537 519.705 89.133 519.705 88.4634C519.705 87.5707 520.375 86.9756 521.044 86.9756H542.395C543.064 86.9756 543.511 87.4963 543.511 88.3146C543.511 89.0586 543.139 89.5793 542.469 89.7281C538.601 90.9184 538.08 94.5636 538.006 97.9112Z" fill="url(#paint6_linear_693_1081)"/>
<path d="M474.331 86.9755H493.152C501.336 86.9755 507.436 86.6035 511.081 86.6035C513.759 86.6035 514.8 88.017 514.8 90.2487L513.908 98.5062C513.759 99.6965 513.238 100.143 512.494 100.143C511.899 100.143 511.304 99.7709 510.858 98.9526C508.998 94.7866 506.32 92.7037 502.228 91.811C500.368 91.2158 495.087 90.9183 492.334 90.9183C491.813 90.9183 491.441 91.2158 491.441 91.6622L490.921 106.094C490.921 107.508 491.516 108.177 493.004 108.177C494.417 108.177 499.178 108.028 500.443 107.805C503.047 107.582 505.576 107.136 507.733 106.466C508.254 106.317 508.849 106.169 509.295 106.169C510.039 106.169 510.337 106.541 510.337 107.359L509.593 113.533C509.519 114.352 509.221 115.096 508.254 115.096C506.617 115.096 504.386 113.98 501.335 113.533C498.806 112.864 495.533 112.79 492.706 112.79C491.441 112.79 490.772 113.682 490.697 114.724L490.177 127.817C490.177 130.792 491.59 132.206 495.384 132.206C497.095 132.206 500.294 131.908 502.079 131.462C506.022 130.42 509.742 128.486 512.122 124.023C512.494 123.353 513.089 122.981 513.759 122.981C514.577 122.981 515.024 123.576 515.024 124.543L514.428 132.95C514.28 135.33 512.494 136.521 510.039 136.521C508.775 136.521 498.36 136 492.185 136H472.843C472.099 136 471.653 135.553 471.653 134.735C471.653 133.991 472.025 133.471 472.769 133.247C476.637 131.983 476.935 128.486 477.084 125.064L478.125 95.7537C478.125 92.9268 477.456 90.1743 474.034 89.728C473.438 89.6536 473.066 89.1328 473.066 88.4633C473.066 87.5706 473.662 86.9755 474.331 86.9755Z" fill="url(#paint7_linear_693_1081)"/>
<path d="M446.977 97.9112L446.01 125.734C446.01 130.421 448.837 131.536 453.077 131.536C457.392 131.536 460.963 130.346 463.418 127.817C465.129 126.255 466.393 124.172 467.063 121.865C467.361 121.047 467.881 120.526 468.848 120.526C469.89 120.526 470.411 121.27 470.411 122.461L469.518 132.875C469.369 135.182 467.509 136.521 464.98 136.521C462.376 136.521 455.904 136 448.391 136H428.454C427.784 136 427.338 135.554 427.338 134.735C427.338 133.991 427.71 133.471 428.379 133.247C431.95 132.057 432.545 128.858 432.694 125.511L433.735 95.9026C433.735 93.0757 433.215 90.1744 429.793 89.7281C429.049 89.6537 428.677 89.133 428.677 88.4634C428.677 87.5707 429.346 86.9756 430.016 86.9756H451.366C452.036 86.9756 452.482 87.4963 452.482 88.3146C452.482 89.0586 452.11 89.5793 451.441 89.7281C447.572 90.9184 447.052 94.5636 446.977 97.9112Z" fill="url(#paint8_linear_693_1081)"/>
<path d="M402.661 97.9112L401.694 125.734C401.694 130.421 404.521 131.536 408.762 131.536C413.076 131.536 416.647 130.346 419.102 127.817C420.813 126.255 422.078 124.172 422.747 121.865C423.045 121.047 423.566 120.526 424.533 120.526C425.574 120.526 426.095 121.27 426.095 122.461L425.202 132.875C425.053 135.182 423.194 136.521 420.664 136.521C418.061 136.521 411.589 136 404.075 136H384.138C383.468 136 383.022 135.554 383.022 134.735C383.022 133.991 383.394 133.471 384.063 133.247C387.634 132.057 388.229 128.858 388.378 125.511L389.42 95.9026C389.42 93.0757 388.899 90.1744 385.477 89.7281C384.733 89.6537 384.361 89.133 384.361 88.4634C384.361 87.5707 385.031 86.9756 385.7 86.9756H407.051C407.72 86.9756 408.166 87.4963 408.166 88.3146C408.166 89.0586 407.794 89.5793 407.125 89.7281C403.257 90.9184 402.736 94.5636 402.661 97.9112Z" fill="url(#paint9_linear_693_1081)"/>
<path d="M356.109 86.5293C359.233 86.5293 361.911 86.9756 362.283 88.0171L375.748 125.883C376.939 129.23 378.426 131.611 381.997 133.099C382.592 133.396 383.411 133.843 383.411 134.661C383.411 135.554 382.741 136 381.997 136H359.01C358.266 136 357.745 135.405 357.745 134.661C357.745 134.066 358.192 133.396 358.936 133.248C360.796 133.024 362.507 132.132 362.507 129.9C362.507 129.305 362.358 128.635 362.135 127.966L360.052 122.014C359.903 121.419 359.68 121.27 359.085 121.27H345.992C343.462 121.27 341.379 122.014 340.412 124.395L338.701 128.561C338.478 129.156 338.329 129.825 338.329 130.346C338.329 132.727 340.486 133.248 342.421 133.248C343.239 133.248 343.611 133.917 343.611 134.587C343.611 135.33 343.165 136 342.421 136H327.468C326.501 136 326.054 135.405 326.054 134.735C326.054 134.14 326.352 133.545 327.17 133.248C330.89 131.983 332.229 129.454 333.494 126.329L348.818 88.2403C349.339 86.9757 352.464 86.5293 356.109 86.5293ZM349.265 101.556L343.685 115.765C343.537 115.989 343.537 116.063 343.537 116.212C343.537 116.361 343.685 116.361 343.834 116.361H356.704C357.522 116.361 357.745 116.137 357.745 115.617C357.745 115.319 357.671 115.021 357.597 114.649L353.282 102.152C352.538 99.9199 351.943 98.0601 351.497 95.8283C351.497 95.6795 351.422 95.6051 351.348 95.6051C351.273 95.6051 351.199 95.6795 351.199 95.8283C350.678 97.6881 350.009 99.6223 349.265 101.556Z" fill="url(#paint10_linear_693_1081)"/>
<path d="M303.827 86.6035C313.721 86.6035 322.053 90.3231 322.053 99.8453C322.053 108.252 314.168 113.161 306.803 113.831C306.505 113.905 306.505 113.98 306.505 114.054C306.505 114.129 306.505 114.203 306.728 114.501C310.299 117.997 313.87 121.196 317.887 124.692C321.532 127.817 325.475 130.718 329.567 132.578C330.087 132.801 330.385 133.099 330.385 133.694C330.385 134.438 329.864 134.884 329.195 135.033C326.294 136.074 323.02 136.818 319.747 136.818C314.763 136.818 310.374 135.33 307.472 132.801C303.381 129.156 300.777 124.395 298.099 118.815C296.76 116.063 295.57 114.575 293.263 114.575L292.817 126.18C292.817 130.941 294.751 132.578 298.768 133.247C299.512 133.396 300.033 133.991 300.033 134.661C300.033 135.405 299.512 136 298.545 136H275.409C274.74 136 274.293 135.553 274.293 134.735C274.293 133.991 274.665 133.471 275.335 133.247C279.203 131.983 279.65 128.561 279.724 125.064L280.691 95.9025C280.691 93.0756 280.17 90.1743 276.674 89.728C276.079 89.6536 275.633 89.1328 275.633 88.4633C275.707 87.5706 276.302 86.9755 276.972 86.9755H288.13C291.701 86.9755 299.512 86.6035 303.827 86.6035ZM298.396 111.227C304.273 111.227 308.291 108.028 308.291 102.449C308.291 95.0842 301.893 90.8439 295.346 90.8439C294.454 90.8439 294.082 91.2902 294.007 92.3317L293.412 108.921C293.487 110.483 294.9 111.227 298.396 111.227Z" fill="url(#paint11_linear_693_1081)"/>
<path d="M246.264 86.5293C249.389 86.5293 252.067 86.9756 252.439 88.0171L265.904 125.883C267.094 129.23 268.582 131.611 272.153 133.099C272.748 133.396 273.566 133.843 273.566 134.661C273.566 135.554 272.897 136 272.153 136H249.166C248.422 136 247.901 135.405 247.901 134.661C247.901 134.066 248.347 133.396 249.091 133.248C250.951 133.024 252.662 132.132 252.662 129.9C252.662 129.305 252.513 128.635 252.29 127.966L250.207 122.014C250.058 121.419 249.835 121.27 249.24 121.27H236.147C233.618 121.27 231.535 122.014 230.568 124.395L228.857 128.561C228.633 129.156 228.485 129.825 228.485 130.346C228.485 132.727 230.642 133.248 232.576 133.248C233.395 133.248 233.766 133.917 233.766 134.587C233.766 135.33 233.32 136 232.576 136H217.623C216.656 136 216.21 135.405 216.21 134.735C216.21 134.14 216.508 133.545 217.326 133.248C221.045 131.983 222.385 129.454 223.649 126.329L238.974 88.2403C239.495 86.9757 242.619 86.5293 246.264 86.5293ZM239.42 101.556L233.841 115.765C233.692 115.989 233.692 116.063 233.692 116.212C233.692 116.361 233.841 116.361 233.99 116.361H246.859C247.678 116.361 247.901 116.137 247.901 115.617C247.901 115.319 247.827 115.021 247.752 114.649L243.437 102.152C242.694 99.9199 242.098 98.0601 241.652 95.8283C241.652 95.6795 241.578 95.6051 241.503 95.6051C241.429 95.6051 241.354 95.6795 241.354 95.8283C240.834 97.6881 240.164 99.6223 239.42 101.556Z" fill="url(#paint12_linear_693_1081)"/>
<path d="M191.308 126.478C191.308 131.239 193.912 132.652 198.747 133.247C199.565 133.322 199.937 133.991 199.937 134.661C199.937 135.405 199.491 136 198.673 136H173.9C173.231 136 172.71 135.553 172.71 134.735C172.71 133.991 173.156 133.471 173.826 133.247C177.694 131.983 178.066 128.486 178.141 125.064L179.108 95.233C179.108 92.6293 178.215 90.0999 175.165 89.728C174.495 89.6536 174.123 89.1328 174.123 88.4633C174.123 87.5706 174.793 86.9755 175.388 86.9755H186.993C190.713 86.9755 196.143 86.6035 203.434 86.6035C214.816 86.6035 219.651 93.0012 219.651 100.887C219.651 110.26 212.658 120.006 197.483 120.006H191.531L191.308 126.478ZM196.813 115.616C203.434 115.616 206.707 111.004 206.707 105.127C206.707 94.3403 198.524 90.6951 193.763 90.6951C193.019 90.6951 192.498 90.9183 192.498 91.6622L191.754 111.971C191.754 113.087 192.052 113.905 192.796 114.501C193.763 115.244 195.102 115.616 196.813 115.616Z" fill="url(#paint13_linear_693_1081)"/>
<path d="M111.307 86.9755H130.128C138.311 86.9755 144.411 86.6035 148.057 86.6035C150.735 86.6035 151.776 88.017 151.776 90.2487L150.884 98.5062C150.735 99.6965 150.214 100.143 149.47 100.143C148.875 100.143 148.28 99.7709 147.834 98.9526C145.974 94.7866 143.296 92.7037 139.204 91.811C137.344 91.2158 132.062 90.9183 129.31 90.9183C128.789 90.9183 128.417 91.2158 128.417 91.6622L127.896 106.094C127.896 107.508 128.492 108.177 129.979 108.177C131.393 108.177 136.154 108.028 137.419 107.805C140.022 107.582 142.552 107.136 144.709 106.466C145.23 106.317 145.825 106.169 146.271 106.169C147.015 106.169 147.313 106.541 147.313 107.359L146.569 113.533C146.494 114.352 146.197 115.096 145.23 115.096C143.593 115.096 141.361 113.98 138.311 113.533C135.782 112.864 132.509 112.79 129.682 112.79C128.417 112.79 127.748 113.682 127.673 114.724L127.153 127.817C127.153 130.792 128.566 132.206 132.36 132.206C134.071 132.206 137.27 131.908 139.055 131.462C142.998 130.42 146.718 128.486 149.098 124.023C149.47 123.353 150.065 122.981 150.735 122.981C151.553 122.981 151.999 123.576 151.999 124.543L151.404 132.95C151.256 135.33 149.47 136.521 147.015 136.521C145.751 136.521 135.336 136 129.161 136H109.819C109.075 136 108.629 135.553 108.629 134.735C108.629 133.991 109.001 133.471 109.745 133.247C113.613 131.983 113.911 128.486 114.06 125.064L115.101 95.7537C115.101 92.9268 114.431 90.1743 111.009 89.728C110.414 89.6536 110.042 89.1328 110.042 88.4633C110.042 87.5706 110.637 86.9755 111.307 86.9755Z" fill="white"/>
<path d="M54.2231 124.99L55.1902 95.7539C55.1902 93.0013 54.5207 90.1744 51.173 89.7281C50.5035 89.6537 50.1315 89.133 50.1315 88.4634C50.1315 87.5707 50.7267 86.9756 51.4706 86.9756H72.6723C73.3419 86.9756 73.7882 87.4963 73.7882 88.3146C73.7882 89.0586 73.4162 89.5793 72.7467 89.7281C69.4735 90.9184 68.5808 93.5221 68.432 97.0185L68.06 107.433C68.06 107.657 68.06 107.805 68.3576 107.805H83.4592C85.5422 107.805 86.8068 107.136 86.8812 105.425L87.2532 95.9026C87.2532 93.0757 86.658 90.1744 83.236 89.7281C82.6409 89.6537 82.1945 89.133 82.1945 88.4634C82.1945 87.5707 82.864 86.9756 83.5336 86.9756H104.81C105.405 86.9756 105.926 87.4963 105.926 88.3146C105.926 89.0586 105.479 89.5793 104.884 89.7281C101.388 90.9184 100.569 93.5965 100.421 97.0929L99.3791 127.147C99.3791 130.049 100.049 132.875 103.396 133.247C104.14 133.322 104.512 133.917 104.512 134.587C104.512 135.479 103.917 136 103.173 136H81.9713C81.3018 136 80.8555 135.554 80.8555 134.735C80.8555 133.991 81.2274 133.471 81.8969 133.247C85.6165 132.057 86.1373 128.784 86.2861 124.99L86.658 113.757C86.658 113.31 86.3605 113.162 85.8397 113.162H71.7052C69.0271 113.162 67.8368 113.831 67.7625 115.542L67.3161 127.147C67.3161 129.974 67.9856 132.875 71.4077 133.247C72.0772 133.322 72.4492 133.917 72.4492 134.587C72.4492 135.479 71.7796 136 71.1101 136H49.9084C49.2388 136 48.7925 135.554 48.7925 134.735C48.7925 133.991 49.1644 133.471 49.834 133.247C53.5536 132.057 54.1487 128.635 54.2231 124.99Z" fill="white"/>
<path d="M17.1549 86.9755H31.6613C37.0175 86.9755 41.1091 86.6035 43.4896 86.6035C47.0605 86.6035 47.2836 89.2072 47.2836 90.4719C47.2836 92.7037 46.6885 98.7294 46.6885 100.738C46.6885 101.705 45.8702 102.151 45.2007 102.151C44.3823 102.151 43.8616 101.631 43.6384 100.738C42.7457 96.4977 39.6956 93.2244 35.7529 92.1085C34.7858 91.6622 32.7772 91.439 31.8101 91.439C31.3637 91.439 30.9918 91.7366 30.9174 92.3317L29.8015 124.99C29.8015 130.048 31.6613 132.355 35.7529 133.247C36.4224 133.396 36.7944 133.917 36.7944 134.586C36.7944 135.479 36.1992 136 35.4553 136H11.7242C11.0547 136 10.6084 135.553 10.6084 134.735C10.6084 133.991 10.9803 133.396 11.6498 133.247C14.9975 131.834 16.4853 128.784 16.6341 125.064L17.75 92.2573C17.75 91.6622 17.2292 91.439 16.7829 91.439C15.667 91.439 13.584 91.5878 12.6169 91.9597C8.45099 93.0756 5.4753 96.2745 3.6155 100.589C3.24354 101.631 2.57402 102.151 1.7557 102.151C1.08617 102.151 0.56543 101.631 0.56543 100.887L2.35084 90.3231C2.57402 88.9097 3.31794 86.6035 6.36801 86.6035C9.86444 86.6035 13.1377 86.9755 17.1549 86.9755Z" fill="white"/>
<path d="M499.86 2.46342L515.929 28.6494C519.128 33.7825 519.649 37.4277 519.798 37.4277C519.946 37.4277 519.798 35.4191 520.021 29.6909L520.69 10.349C520.69 6.33182 518.756 4.17444 515.557 3.72809C514.813 3.6537 514.367 3.05856 514.367 2.38903C514.367 1.64511 514.813 0.975586 515.632 0.975586L530.287 0.975586C531.105 0.975586 531.551 1.57072 531.551 2.38903C531.551 3.05856 531.179 3.6537 530.361 3.72809C527.683 4.54641 526.79 6.33181 526.642 9.97702L525.303 49.4048C525.303 50.2231 522.699 50.5951 519.202 50.5951C517.045 50.5951 515.111 50 513.4 48.5121C511.838 47.1731 510.573 45.3876 508.862 42.6351L493.314 17.4906C491.305 14.2174 490.636 11.8368 490.487 11.8368C490.338 11.8368 490.413 13.4735 490.338 16.5235L489.52 40.7009C489.52 44.9413 491.752 46.7267 495.099 47.2474C495.843 47.3962 496.215 47.9914 496.215 48.7353C496.215 49.4048 495.843 50 495.025 50H479.403C478.51 50 477.915 49.4048 477.915 48.7353C477.915 48.1402 478.287 47.545 479.105 47.2474C482.75 46.1316 483.42 43.8998 483.569 40.1802L484.61 10.2002C484.61 7.15013 483.569 4.6208 480.072 3.72809C479.328 3.57931 478.956 2.98417 478.956 2.38903C478.956 1.64511 479.477 0.975586 480.37 0.975586L497.405 0.975586C498.596 0.975586 499.265 1.49633 499.86 2.46342Z" fill="white"/>
<path d="M469.159 11.0929L468.192 41.1473C468.192 43.9742 468.787 46.8755 472.135 47.2474C472.879 47.3218 473.251 47.917 473.251 48.5865C473.251 49.4792 472.581 50 471.912 50H450.71C450.041 50 449.594 49.5536 449.594 48.7353C449.594 47.9914 449.966 47.4706 450.636 47.2474C454.578 46.0572 454.876 42.4864 455.025 38.9899L455.992 9.90263C455.992 7.07573 455.471 4.17444 451.975 3.72809C451.305 3.6537 450.933 3.13295 450.933 2.46342C450.933 1.57072 451.603 0.975586 452.272 0.975586L473.474 0.975586C474.144 0.975586 474.59 1.49633 474.59 2.31464C474.59 3.05856 474.218 3.57931 473.548 3.72809C470.126 4.91837 469.234 7.81965 469.159 11.0929Z" fill="white"/>
<path d="M413.319 0.157227C419.791 0.157227 425.743 1.86824 425.743 7.29886C425.743 9.15866 424.925 13.771 424.925 14.9612C424.925 15.6308 424.404 15.9283 423.734 15.9283C423.214 15.9283 422.767 15.6308 422.544 15.1844C419.494 10.1258 414.361 6.40616 408.558 6.33177C406.922 6.33177 404.987 6.77812 403.5 7.59643C402.012 8.48914 400.97 9.90258 400.97 11.688C400.97 13.3246 401.937 14.4405 403.276 15.4076C406.029 17.3418 410.418 18.6065 413.766 19.8711C420.684 22.4748 427.677 25.9713 427.677 34.2288C427.677 43.9741 419.048 50.8926 405.062 50.8926C397.399 50.8926 390.258 48.9584 390.258 42.8583C390.258 41.5936 391.002 36.0886 391.002 35.0471C391.002 34.5264 391.522 34.1544 392.192 34.1544C392.713 34.1544 393.234 34.3776 393.457 34.7495C397.325 40.5521 403.128 44.6437 410.269 44.6437C412.129 44.6437 414.138 44.1229 415.626 43.0814C416.89 42.1887 417.783 40.9985 417.783 39.3618C417.783 37.7252 416.816 36.5349 415.477 35.5678C412.575 33.5593 408.112 32.2946 404.467 30.8811C397.92 28.2774 391.076 24.781 391.076 16.5235C391.076 6.33177 401.045 0.157227 413.319 0.157227Z" fill="white"/>
<path d="M362.6 0.603516C372.494 0.603516 380.826 4.32312 380.826 13.8453C380.826 22.2516 372.94 27.1615 365.575 27.831C365.278 27.9054 365.278 27.9798 365.278 28.0542C365.278 28.1286 365.278 28.203 365.501 28.5005C369.072 31.997 372.642 35.1958 376.66 38.6922C380.305 41.8167 384.248 44.718 388.339 46.5778C388.86 46.801 389.158 47.0986 389.158 47.6937C389.158 48.4376 388.637 48.884 387.967 49.0327C385.066 50.0742 381.793 50.8182 378.519 50.8182C373.535 50.8182 369.146 49.3303 366.245 46.801C362.153 43.1558 359.549 38.3947 356.871 32.8153C355.532 30.0628 354.342 28.5749 352.036 28.5749L351.59 40.1801C351.59 44.9412 353.524 46.5778 357.541 47.2473C358.285 47.3961 358.806 47.9913 358.806 48.6608C358.806 49.4047 358.285 49.9998 357.318 49.9998H334.182C333.512 49.9998 333.066 49.5535 333.066 48.7352C333.066 47.9913 333.438 47.4705 334.107 47.2473C337.976 45.9827 338.422 42.5606 338.497 39.0642L339.464 9.90252C339.464 7.07562 338.943 4.17433 335.446 3.72798C334.851 3.65359 334.405 3.13284 334.405 2.46331C334.479 1.57061 335.074 0.975475 335.744 0.975475L346.903 0.975475C350.474 0.975475 358.285 0.603516 362.6 0.603516ZM357.169 25.2273C363.046 25.2273 367.063 22.0284 367.063 16.449C367.063 9.08421 360.665 4.84386 354.119 4.84386C353.226 4.84386 352.854 5.29022 352.78 6.33171L352.185 22.9211C352.259 24.4834 353.673 25.2273 357.169 25.2273Z" fill="white"/>
<path d="M287.915 0.975475L306.736 0.975475C314.919 0.975475 321.02 0.603516 324.665 0.603516C327.343 0.603516 328.384 2.01696 328.384 4.24873L327.492 12.5062C327.343 13.6965 326.822 14.1429 326.078 14.1429C325.483 14.1429 324.888 13.7709 324.442 12.9526C322.582 8.78664 319.904 6.70367 315.812 5.81096C313.952 5.21582 308.671 4.91826 305.918 4.91826C305.397 4.91826 305.025 5.21582 305.025 5.66218L304.505 20.0942C304.505 21.5077 305.1 22.1772 306.588 22.1772C308.001 22.1772 312.762 22.0284 314.027 21.8053C316.63 21.5821 319.16 21.1357 321.317 20.4662C321.838 20.3174 322.433 20.1686 322.879 20.1686C323.623 20.1686 323.921 20.5406 323.921 21.3589L323.177 27.5334C323.103 28.3518 322.805 29.0957 321.838 29.0957C320.201 29.0957 317.97 27.9798 314.919 27.5334C312.39 26.8639 309.117 26.7895 306.29 26.7895C305.025 26.7895 304.356 27.6822 304.281 28.7237L303.761 41.8167C303.761 44.7924 305.174 46.2058 308.968 46.2058C310.679 46.2058 313.878 45.9083 315.663 45.4619C319.606 44.4204 323.326 42.4862 325.706 38.0227C326.078 37.3532 326.673 36.9812 327.343 36.9812C328.161 36.9812 328.608 37.5764 328.608 38.5435L328.012 46.9498C327.864 49.3303 326.078 50.5206 323.623 50.5206C322.359 50.5206 311.944 49.9998 305.769 49.9998H286.427C285.683 49.9998 285.237 49.5535 285.237 48.7352C285.237 47.9913 285.609 47.4705 286.353 47.2473C290.221 45.9827 290.519 42.4862 290.668 39.0642L291.709 9.75374C291.709 6.92684 291.04 4.17433 287.618 3.72798C287.022 3.65359 286.65 3.13284 286.65 2.46331C286.65 1.57061 287.246 0.975475 287.915 0.975475Z" fill="white"/>
<path d="M241.203 0.975475L260.024 0.975475C268.207 0.975475 274.307 0.603516 277.952 0.603516C280.63 0.603516 281.672 2.01696 281.672 4.24873L280.779 12.5062C280.63 13.6965 280.11 14.1429 279.366 14.1429C278.77 14.1429 278.175 13.7709 277.729 12.9526C275.869 8.78664 273.191 6.70367 269.1 5.81096C267.24 5.21582 261.958 4.91826 259.205 4.91826C258.685 4.91826 258.313 5.21582 258.313 5.66218L257.792 20.0942C257.792 21.5077 258.387 22.1772 259.875 22.1772C261.288 22.1772 266.049 22.0284 267.314 21.8053C269.918 21.5821 272.447 21.1357 274.605 20.4662C275.125 20.3174 275.72 20.1686 276.167 20.1686C276.911 20.1686 277.208 20.5406 277.208 21.3589L276.464 27.5334C276.39 28.3518 276.092 29.0957 275.125 29.0957C273.489 29.0957 271.257 27.9798 268.207 27.5334C265.677 26.8639 262.404 26.7895 259.577 26.7895C258.313 26.7895 257.643 27.6822 257.569 28.7237L257.048 41.8167C257.048 44.7924 258.461 46.2058 262.255 46.2058C263.966 46.2058 267.165 45.9083 268.951 45.4619C272.894 44.4204 276.613 42.4862 278.994 38.0227C279.366 37.3532 279.961 36.9812 280.63 36.9812C281.449 36.9812 281.895 37.5764 281.895 38.5435L281.3 46.9498C281.151 49.3303 279.366 50.5206 276.911 50.5206C275.646 50.5206 265.231 49.9998 259.057 49.9998H239.715C238.971 49.9998 238.524 49.5535 238.524 48.7352C238.524 47.9913 238.896 47.4705 239.64 47.2473C243.509 45.9827 243.806 42.4862 243.955 39.0642L244.997 9.75374C244.997 6.92684 244.327 4.17433 240.905 3.72798C240.31 3.65359 239.938 3.13284 239.938 2.46331C239.938 1.57061 240.533 0.975475 241.203 0.975475Z" fill="white"/>
<path d="M204.399 2.46342L220.468 28.6494C223.667 33.7825 224.188 37.4277 224.336 37.4277C224.485 37.4277 224.336 35.4191 224.56 29.6909L225.229 10.349C225.229 6.33182 223.295 4.17444 220.096 3.72809C219.352 3.6537 218.906 3.05856 218.906 2.38903C218.906 1.64511 219.352 0.975586 220.17 0.975586L234.826 0.975586C235.644 0.975586 236.09 1.57072 236.09 2.38903C236.09 3.05856 235.718 3.6537 234.9 3.72809C232.222 4.54641 231.329 6.33181 231.18 9.97702L229.841 49.4048C229.841 50.2231 227.238 50.5951 223.741 50.5951C221.584 50.5951 219.65 50 217.939 48.5121C216.376 47.1731 215.112 45.3876 213.401 42.6351L197.853 17.4906C195.844 14.2174 195.175 11.8368 195.026 11.8368C194.877 11.8368 194.951 13.4735 194.877 16.5235L194.059 40.7009C194.059 44.9413 196.291 46.7267 199.638 47.2474C200.382 47.3962 200.754 47.9914 200.754 48.7353C200.754 49.4048 200.382 50 199.564 50H183.941C183.049 50 182.454 49.4048 182.454 48.7353C182.454 48.1402 182.826 47.545 183.644 47.2474C187.289 46.1316 187.959 43.8998 188.107 40.1802L189.149 10.2002C189.149 7.15013 188.107 4.6208 184.611 3.72809C183.867 3.57931 183.495 2.98417 183.495 2.38903C183.495 1.64511 184.016 0.975586 184.909 0.975586L201.944 0.975586C203.135 0.975586 203.804 1.49633 204.399 2.46342Z" fill="white"/>
<path d="M155.593 0.157227C171.14 0.157227 178.58 11.1673 178.58 22.9956C178.58 36.5349 168.909 50.8926 150.683 50.8926C134.837 50.8926 127.621 40.1802 127.621 28.575C127.621 14.9612 137.59 0.157227 155.593 0.157227ZM150.236 6.9269C142.723 6.9269 139.375 13.5478 139.375 21.2102C139.375 31.6251 145.624 44.1973 155.89 44.1973C163.478 44.1973 166.826 37.7252 166.826 30.1372C166.826 19.6479 160.354 6.9269 150.236 6.9269Z" fill="white"/>
<path d="M118.122 11.0929L117.155 41.1473C117.155 43.9742 117.75 46.8755 121.097 47.2474C121.841 47.3218 122.213 47.917 122.213 48.5865C122.213 49.4792 121.544 50 120.874 50H99.6725C99.003 50 98.5566 49.5536 98.5566 48.7353C98.5566 47.9914 98.9286 47.4706 99.5981 47.2474C103.541 46.0572 103.838 42.4864 103.987 38.9899L104.954 9.90263C104.954 7.07573 104.434 4.17444 100.937 3.72809C100.268 3.6537 99.8957 3.13295 99.8957 2.46342C99.8957 1.57072 100.565 0.975586 101.235 0.975586L122.436 0.975586C123.106 0.975586 123.552 1.49633 123.552 2.31464C123.552 3.05856 123.18 3.57931 122.511 3.72809C119.089 4.91837 118.196 7.81965 118.122 11.0929Z" fill="white"/>
<path d="M66.7157 40.4777C66.7157 45.2387 69.3194 46.6522 74.1549 47.2473C74.9732 47.3217 75.3452 47.9913 75.3452 48.6608C75.3452 49.4047 74.8988 49.9998 74.0805 49.9998H49.308C48.6384 49.9998 48.1177 49.5535 48.1177 48.7352C48.1177 47.9913 48.564 47.4705 49.2336 47.2473C53.1019 45.9827 53.4739 42.4862 53.5483 39.0642L54.5154 9.23299C54.5154 6.62927 53.6227 4.09994 50.5726 3.72798C49.9031 3.65359 49.5311 3.13284 49.5311 2.46331C49.5311 1.57061 50.2007 0.975475 50.7958 0.975475L62.4009 0.975475C66.1205 0.975475 71.5512 0.603516 78.8416 0.603516C90.2236 0.603516 95.0591 7.00123 95.0591 14.8868C95.0591 24.2602 88.0662 34.0055 72.8902 34.0055H66.9389L66.7157 40.4777ZM72.2207 29.6164C78.8416 29.6164 82.1148 25.0041 82.1148 19.1271C82.1148 8.34029 73.9317 4.69508 69.1706 4.69508C68.4267 4.69508 67.906 4.91826 67.906 5.66218L67.162 25.9712C67.162 27.0871 67.4596 27.9054 68.2035 28.5005C69.1706 29.2445 70.5097 29.6164 72.2207 29.6164Z" fill="white"/>
<defs>
<linearGradient id="paint0_linear_693_1081" x1="425.701" y1="260.765" x2="148.914" y2="301.19" gradientUnits="userSpaceOnUse">
<stop stop-color="#CC00FF"/>
<stop offset="1" stop-color="#8000FF"/>
</linearGradient>
<linearGradient id="paint1_linear_693_1081" x1="425.701" y1="260.765" x2="148.914" y2="301.19" gradientUnits="userSpaceOnUse">
<stop stop-color="#CC00FF"/>
<stop offset="1" stop-color="#8000FF"/>
</linearGradient>
<linearGradient id="paint2_linear_693_1081" x1="425.701" y1="260.765" x2="148.914" y2="301.19" gradientUnits="userSpaceOnUse">
<stop stop-color="#CC00FF"/>
<stop offset="1" stop-color="#8000FF"/>
</linearGradient>
<linearGradient id="paint3_linear_693_1081" x1="425.701" y1="260.765" x2="148.914" y2="301.19" gradientUnits="userSpaceOnUse">
<stop stop-color="#CC00FF"/>
<stop offset="1" stop-color="#8000FF"/>
</linearGradient>
<linearGradient id="paint4_linear_693_1081" x1="425.701" y1="260.765" x2="148.914" y2="301.19" gradientUnits="userSpaceOnUse">
<stop stop-color="#CC00FF"/>
<stop offset="1" stop-color="#8000FF"/>
</linearGradient>
<linearGradient id="paint5_linear_693_1081" x1="425.701" y1="260.765" x2="148.914" y2="301.19" gradientUnits="userSpaceOnUse">
<stop stop-color="#CC00FF"/>
<stop offset="1" stop-color="#8000FF"/>
</linearGradient>
<linearGradient id="paint6_linear_693_1081" x1="541.456" y1="87.247" x2="195.856" y2="122.635" gradientUnits="userSpaceOnUse">
<stop stop-color="#CC00FF"/>
<stop offset="1" stop-color="#8000FF"/>
</linearGradient>
<linearGradient id="paint7_linear_693_1081" x1="541.456" y1="87.247" x2="195.856" y2="122.635" gradientUnits="userSpaceOnUse">
<stop stop-color="#CC00FF"/>
<stop offset="1" stop-color="#8000FF"/>
</linearGradient>
<linearGradient id="paint8_linear_693_1081" x1="541.456" y1="87.247" x2="195.856" y2="122.635" gradientUnits="userSpaceOnUse">
<stop stop-color="#CC00FF"/>
<stop offset="1" stop-color="#8000FF"/>
</linearGradient>
<linearGradient id="paint9_linear_693_1081" x1="541.456" y1="87.2471" x2="195.856" y2="122.635" gradientUnits="userSpaceOnUse">
<stop stop-color="#CC00FF"/>
<stop offset="1" stop-color="#8000FF"/>
</linearGradient>
<linearGradient id="paint10_linear_693_1081" x1="541.456" y1="87.2471" x2="195.856" y2="122.635" gradientUnits="userSpaceOnUse">
<stop stop-color="#CC00FF"/>
<stop offset="1" stop-color="#8000FF"/>
</linearGradient>
<linearGradient id="paint11_linear_693_1081" x1="541.456" y1="87.2471" x2="195.856" y2="122.635" gradientUnits="userSpaceOnUse">
<stop stop-color="#CC00FF"/>
<stop offset="1" stop-color="#8000FF"/>
</linearGradient>
<linearGradient id="paint12_linear_693_1081" x1="541.456" y1="87.247" x2="195.856" y2="122.635" gradientUnits="userSpaceOnUse">
<stop stop-color="#CC00FF"/>
<stop offset="1" stop-color="#8000FF"/>
</linearGradient>
<linearGradient id="paint13_linear_693_1081" x1="541.456" y1="87.247" x2="195.856" y2="122.635" gradientUnits="userSpaceOnUse">
<stop stop-color="#CC00FF"/>
<stop offset="1" stop-color="#8000FF"/>
</linearGradient>
</defs>
</svg>
