<svg width="618" height="67" viewBox="0 0 618 67" fill="none" xmlns="http://www.w3.org/2000/svg">
<path d="M602.479 17.291C614.621 17.291 616.534 21.4978 616.534 27.5213C616.534 29.6247 616.151 32.2061 616.055 34.2139C616.055 35.0744 615.482 35.5525 614.526 35.5525C614.048 35.5525 613.474 35.17 613.187 34.5964C609.267 28.6686 601.905 24.5574 595.213 24.5574C591.962 24.5574 589.954 25.9915 589.954 28.1905C589.954 31.1544 595.786 32.8754 601.045 34.5008C607.642 36.6042 613.761 38.9944 616.342 44.3486C617.107 46.0696 617.394 47.9818 617.394 49.8939C617.394 52.571 616.725 55.0569 615.195 57.1603C610.988 63.2793 601.81 66.1476 593.492 66.1476C580.967 66.052 578.576 61.3671 578.576 54.1964C578.576 52.4754 578.576 49.9896 578.863 47.9817C578.863 47.0256 579.628 46.6432 580.393 46.6432C581.062 46.6432 581.445 46.93 581.732 47.4081C586.321 54.6744 595.213 58.8813 602.192 58.8813C605.347 58.8813 607.259 57.5427 607.259 55.3437C607.259 51.9974 602.001 50.372 596.455 48.651C590.145 46.6432 583.739 44.0617 581.158 38.612C580.393 36.891 579.915 34.9788 579.915 33.0666C579.915 30.5808 580.68 28.0949 582.114 25.8959C586.034 20.2549 594.448 17.291 602.479 17.291Z" fill="url(#paint0_linear_693_1129)"/>
<path d="M550.827 17.482C552.166 17.482 553.409 17.96 554.365 18.9161L553.791 28.5727C553.791 28.8595 553.887 28.9551 553.982 28.9551C554.078 28.9551 554.174 28.8595 554.269 28.6683C557.329 22.7405 564.117 17.0039 568.993 17.0039C572.531 17.0039 573.104 21.7844 573.104 29.0507C573.104 32.7795 572.435 36.5083 569.662 36.5083C568.419 36.5083 567.081 36.0303 566.029 35.361C563.639 34.2137 560.866 32.0146 558.189 32.0146C555.321 32.0146 554.174 34.7873 554.078 37.7512L553.6 51.1366C553.6 57.3512 556.851 60.2195 564.213 61.4624C564.882 61.6537 565.551 62.2273 565.551 63.1834C565.551 64.3307 564.691 65 563.83 65H531.896C531.036 65 530.367 64.4263 530.367 63.3746C530.367 62.4185 530.94 61.6537 531.801 61.4624C537.059 60.1239 537.346 55.439 537.442 50.8498L538.016 33.3532C538.016 29.72 536.486 27.9034 531.896 27.9034C531.418 27.521 531.036 26.9473 531.036 26.1824C531.036 25.2263 531.61 24.079 533.235 23.8878C537.442 23.3142 542.796 21.1151 546.142 19.2029C547.576 18.2468 549.106 17.482 550.827 17.482Z" fill="url(#paint1_linear_693_1129)"/>
<path d="M505.738 17.291C517.594 17.291 525.051 24.1749 525.051 31.9193C525.051 35.3613 523.139 38.4208 518.168 39.5681C512.335 41.0022 495.89 43.01 492.353 43.01C491.97 43.01 491.779 43.2013 491.779 43.6793C492.257 45.2091 492.831 46.5476 493.883 47.9817C497.229 52.571 502.87 54.8657 508.798 54.8657C513.961 54.8657 519.124 52.9535 523.044 49.4159C523.33 49.0335 523.809 48.8422 524.287 48.8422C524.956 48.8422 525.721 49.3203 525.721 50.1808C525.721 50.372 525.721 50.6588 525.625 50.9457C521.992 60.1242 511.762 66.1476 500.958 66.1476C488.05 66.052 477.725 57.9252 477.725 44.1574C477.725 28.3818 490.632 17.291 505.738 17.291ZM499.81 24.8442C493.405 24.8442 490.058 30.2939 490.058 36.5086C490.058 37.1778 490.154 37.7515 490.249 38.0383C490.345 38.4208 490.536 38.7076 491.014 38.7076C493.309 38.7076 510.423 35.6481 510.423 34.5964C510.423 32.2061 507.268 24.8442 499.81 24.8442Z" fill="url(#paint2_linear_693_1129)"/>
<path d="M436.438 28.6686C439.784 21.4022 446.19 17.291 452.978 17.291C463.973 17.291 468.18 24.3661 468.18 34.5008L467.511 52.3798C467.511 56.9691 467.798 60.6978 471.526 61.4627C472.387 61.6539 472.961 62.2276 472.961 63.1837C472.961 64.331 472.1 65.0003 471.24 65.0003H446.285C445.329 65.0003 444.756 64.4266 444.756 63.3749C444.756 62.4188 445.329 61.7496 446.19 61.4627C450.779 59.933 451.162 55.3437 451.353 50.85L451.831 38.7076C451.831 34.0227 451.257 27.5213 444.756 27.5213C437.681 27.5213 436.533 35.2657 436.246 42.4364L435.864 53.5271C435.864 57.8296 436.533 60.7935 439.88 61.4627C440.74 61.6539 441.218 62.2276 441.218 63.1837C441.218 64.331 440.358 65.0003 439.497 65.0003H414.543C413.682 65.0003 413.013 64.4266 413.013 63.3749C413.013 62.4188 413.587 61.7496 414.447 61.4627C418.941 59.6461 419.515 55.2481 419.706 50.85L420.375 33.3535C420.375 29.7203 418.654 27.9037 414.065 27.9037C413.587 27.5213 413.3 26.9476 413.3 26.1827C413.3 25.2266 413.778 24.0793 415.403 23.8881C419.706 23.3144 425.06 21.1154 428.311 19.2032C429.841 18.2471 431.275 17.4822 433.091 17.4822C434.43 17.4822 435.577 17.9603 436.533 18.9164L435.96 28.573C435.96 28.8598 436.055 28.9554 436.151 28.9554C436.246 28.9554 436.342 28.8598 436.438 28.6686Z" fill="url(#paint3_linear_693_1129)"/>
<path d="M376.356 50.5631L377.121 27.4255C377.121 26.9475 376.93 26.8519 376.356 26.8519H370.046C369.185 26.7562 368.898 25.8001 368.803 24.5572C368.803 23.3143 369.09 22.0714 370.141 21.8801C378.937 19.4899 385.439 14.2314 388.785 6.29576C389.072 5.53088 390.411 5.14844 391.558 5.14844C392.896 5.14844 394.044 5.62649 394.044 6.6782L393.566 18.9162C393.566 19.2987 393.757 19.5855 394.235 19.5855H407.333C408.576 19.6811 408.959 20.7328 408.959 22.0714C408.959 23.6011 408.385 25.2265 407.142 25.3221L393.47 26.7562L392.801 45.8782C392.801 48.9377 393.279 51.328 394.809 52.9533C396.338 54.5787 398.633 55.3436 401.023 55.3436C402.935 55.3436 404.848 54.8655 406.664 53.6226C406.951 53.527 407.429 53.3358 407.716 53.3358C408.672 53.3358 409.341 54.1006 409.341 55.1523C409.341 55.726 409.15 56.1084 408.863 56.5865C405.326 62.2275 398.059 66.1475 391.175 66.1475C386.108 66.1475 382.092 64.6177 379.607 61.6538C377.312 58.9767 376.356 55.1523 376.356 50.5631Z" fill="url(#paint4_linear_693_1129)"/>
<path d="M343.922 17.482C345.26 17.482 346.503 17.96 347.459 18.9161L346.886 28.5727C346.886 28.8595 346.981 28.9551 347.077 28.9551C347.172 28.9551 347.268 28.8595 347.364 28.6683C350.423 22.7405 357.211 17.0039 362.088 17.0039C365.625 17.0039 366.199 21.7844 366.199 29.0507C366.199 32.7795 365.529 36.5083 362.757 36.5083C361.514 36.5083 360.175 36.0303 359.124 35.361C356.733 34.2137 353.961 32.0146 351.284 32.0146C348.415 32.0146 347.268 34.7873 347.172 37.7512L346.694 51.1366C346.694 57.3512 349.945 60.2195 357.307 61.4624C357.976 61.6537 358.646 62.2273 358.646 63.1834C358.646 64.3307 357.785 65 356.925 65H324.991C324.13 65 323.461 64.4263 323.461 63.3746C323.461 62.4185 324.035 61.6537 324.895 61.4624C330.154 60.1239 330.441 55.439 330.536 50.8498L331.11 33.3532C331.11 29.72 329.58 27.9034 324.991 27.9034C324.513 27.521 324.13 26.9473 324.13 26.1824C324.13 25.2263 324.704 24.079 326.329 23.8878C330.536 23.3142 335.89 21.1151 339.237 19.2029C340.671 18.2468 342.201 17.482 343.922 17.482Z" fill="url(#paint5_linear_693_1129)"/>
<path d="M283.694 48.4599C283.694 52.4755 286.179 56.3955 290.482 56.3955C298.417 56.3955 298.704 47.695 298.704 43.5838V41.2892C298.704 41.0023 298.417 40.8111 298.131 40.8111C297.939 40.8111 297.557 41.0023 297.079 41.0979C292.49 42.4365 283.694 45.496 283.694 48.4599ZM282.355 28.4775C282.355 33.736 281.686 37.0823 278.435 37.0823C275.184 37.0823 270.308 34.214 270.308 31.0589C270.308 28.1906 273.655 25.0355 276.332 23.1233C281.781 19.2989 288.092 17.3867 294.593 17.3867C305.11 17.3867 314.862 22.8365 314.862 35.6482L314.289 52.1887C314.289 56.9692 316.392 59.3594 318.4 59.3594C319.069 59.3594 319.547 59.455 319.93 59.6462C320.312 59.8375 320.503 60.3155 320.503 60.7935C320.503 61.176 320.408 61.654 320.121 61.9409C318.209 64.0443 312.663 65.7653 308.456 65.7653C302.624 65.7653 298.609 63.0882 298.609 57.4472C298.609 57.3516 298.513 57.3516 298.322 57.3516C298.131 57.3516 297.939 57.3516 297.939 57.4472C295.167 62.9926 289.143 66.0521 282.929 66.0521C274.611 66.0521 268.874 60.2199 268.874 51.615C268.874 49.0335 269.161 47.9818 271.36 46.3565C275.949 43.0101 285.797 39.1857 297.366 36.7955C298.131 36.6043 298.704 36.7955 298.704 35.457C298.704 29.0511 293.063 26.1828 286.944 26.1828C285.988 26.1828 285.032 26.1828 284.267 26.374C283.12 26.5653 282.355 27.0433 282.355 28.4775Z" fill="url(#paint6_linear_693_1129)"/>
<path d="M227.187 52.7615C227.187 58.8805 230.533 60.6971 236.748 61.462C237.799 61.5576 238.277 62.4181 238.277 63.2786C238.277 64.2347 237.704 64.9995 236.652 64.9995H204.814C203.953 64.9995 203.284 64.4259 203.284 63.3742C203.284 62.4181 203.858 61.7488 204.718 61.462C209.69 59.8366 210.168 55.3429 210.264 50.9449L211.507 12.6054C211.507 9.25904 210.359 6.00831 206.439 5.53026C205.579 5.43465 205.101 4.76538 205.101 3.90489C205.101 2.75758 205.961 1.9927 206.726 1.9927H221.641C226.422 1.9927 233.401 1.51465 242.771 1.51465C257.399 1.51465 263.614 9.73709 263.614 19.8717C263.614 31.9186 254.627 44.4434 235.122 44.4434H227.473L227.187 52.7615ZM234.262 38.8025C242.771 38.8025 246.978 32.8747 246.978 25.3215C246.978 11.4581 236.461 6.77319 230.342 6.77319C229.386 6.77319 228.716 7.06002 228.716 8.01612L227.76 34.1176C227.76 35.5517 228.143 36.6034 229.099 37.3683C230.342 38.3244 232.063 38.8025 234.262 38.8025Z" fill="url(#paint7_linear_693_1129)"/>
<path d="M155.316 17.482C156.655 17.482 157.898 17.96 158.854 18.9161L158.28 28.5727C158.28 28.8595 158.376 28.9551 158.472 28.9551C158.567 28.9551 158.663 28.8595 158.758 28.6683C161.818 22.7405 168.606 17.0039 173.482 17.0039C177.02 17.0039 177.594 21.7844 177.594 29.0507C177.594 32.7795 176.924 36.5083 174.152 36.5083C172.909 36.5083 171.57 36.0303 170.518 35.361C168.128 34.2137 165.355 32.0146 162.678 32.0146C159.81 32.0146 158.663 34.7873 158.567 37.7512L158.089 51.1366C158.089 57.3512 161.34 60.2195 168.702 61.4624C169.371 61.6537 170.04 62.2273 170.04 63.1834C170.04 64.3307 169.18 65 168.319 65H136.386C135.525 65 134.856 64.4263 134.856 63.3746C134.856 62.4185 135.43 61.6537 136.29 61.4624C141.549 60.1239 141.835 55.439 141.931 50.8498L142.505 33.3532C142.505 29.72 140.975 27.9034 136.386 27.9034C135.908 27.521 135.525 26.9473 135.525 26.1824C135.525 25.2263 136.099 24.079 137.724 23.8878C141.931 23.3142 147.285 21.1151 150.632 19.2029C152.066 18.2468 153.595 17.482 155.316 17.482Z" fill="white"/>
<path d="M109.131 41.002L109.322 32.8751C109.322 29.1463 107.123 27.4254 102.63 27.4254C102.152 27.1385 101.769 26.3737 101.769 25.7044C101.769 24.7483 102.247 23.601 103.873 23.4098C108.079 22.8361 114.103 20.6371 117.449 18.5337C118.979 17.6732 120.413 17.0039 122.23 17.0039C123.473 17.0039 125.194 17.482 126.245 18.4381L125.098 50.1805C125.098 54.1005 126.245 56.7776 128.444 57.9249C129.209 58.3073 130.165 58.6898 130.93 58.881C131.504 59.0722 131.791 59.5503 131.791 60.2195C131.791 60.7932 131.408 61.2712 131.026 61.6537C128.253 64.0439 123.473 65.6693 119.17 65.6693C113.338 65.6693 109.227 62.6098 109.227 56.8732C109.227 56.2039 109.227 55.5346 109.322 54.8654C109.322 54.5785 109.227 54.4829 109.131 54.4829C108.94 54.4829 108.844 54.5785 108.844 54.7698C106.167 61.6537 98.8052 66.1473 92.0169 66.1473C81.0218 66.1473 77.1974 59.0722 77.1974 48.9376L77.7711 32.8751C77.7711 29.1463 75.5721 27.4254 71.0784 27.4254C70.4091 27.1385 70.1223 26.3737 70.1223 25.7044C70.1223 24.7483 70.6004 23.601 72.2257 23.4098C76.5282 22.8361 82.3604 20.6371 85.7067 18.5337C87.2365 17.6732 88.6706 17.0039 90.3916 17.0039C91.7301 17.0039 93.5467 17.482 94.4072 18.4381L93.5467 44.7307C93.5467 49.6068 94.0248 55.5346 100.622 55.5346C107.697 55.5346 109.035 48.1727 109.131 41.002Z" fill="white"/>
<path d="M36.8433 0.941406C56.8258 0.941406 66.3867 15.0917 66.3867 30.2936C66.3867 47.6946 53.9575 66.1473 30.5331 66.1473C10.1682 66.1473 0.894043 52.3795 0.894043 37.4643C0.894043 19.9677 13.7057 0.941406 36.8433 0.941406ZM29.9594 9.64189C20.3028 9.64189 16.0004 18.1512 16.0004 27.999C16.0004 41.3843 24.0316 57.5424 37.2258 57.5424C46.9779 57.5424 51.2804 49.2243 51.2804 39.4721C51.2804 25.9912 42.9623 9.64189 29.9594 9.64189Z" fill="white"/>
<defs>
<linearGradient id="paint0_linear_693_1129" x1="617.394" y1="17.291" x2="569.084" y2="30.22" gradientUnits="userSpaceOnUse">
<stop stop-color="#CC00FF"/>
<stop offset="1" stop-color="#8000FF"/>
</linearGradient>
<linearGradient id="paint1_linear_693_1129" x1="573.104" y1="17.0039" x2="520.81" y2="32.6886" gradientUnits="userSpaceOnUse">
<stop stop-color="#CC00FF"/>
<stop offset="1" stop-color="#8000FF"/>
</linearGradient>
<linearGradient id="paint2_linear_693_1129" x1="525.721" y1="17.291" x2="468.026" y2="36.3823" gradientUnits="userSpaceOnUse">
<stop stop-color="#CC00FF"/>
<stop offset="1" stop-color="#8000FF"/>
</linearGradient>
<linearGradient id="paint3_linear_693_1129" x1="472.961" y1="17.291" x2="405.155" y2="45.9887" gradientUnits="userSpaceOnUse">
<stop stop-color="#CC00FF"/>
<stop offset="1" stop-color="#8000FF"/>
</linearGradient>
<linearGradient id="paint4_linear_693_1129" x1="409.341" y1="5.14844" x2="357.856" y2="16.6737" gradientUnits="userSpaceOnUse">
<stop stop-color="#CC00FF"/>
<stop offset="1" stop-color="#8000FF"/>
</linearGradient>
<linearGradient id="paint5_linear_693_1129" x1="366.199" y1="17.0039" x2="313.905" y2="32.6885" gradientUnits="userSpaceOnUse">
<stop stop-color="#CC00FF"/>
<stop offset="1" stop-color="#8000FF"/>
</linearGradient>
<linearGradient id="paint6_linear_693_1129" x1="320.503" y1="17.3867" x2="259.443" y2="39.2065" gradientUnits="userSpaceOnUse">
<stop stop-color="#CC00FF"/>
<stop offset="1" stop-color="#8000FF"/>
</linearGradient>
<linearGradient id="paint7_linear_693_1129" x1="263.614" y1="1.51465" x2="190.631" y2="24.8762" gradientUnits="userSpaceOnUse">
<stop stop-color="#CC00FF"/>
<stop offset="1" stop-color="#8000FF"/>
</linearGradient>
</defs>
</svg>
