<svg width="464" height="67" viewBox="0 0 464 67" fill="none" xmlns="http://www.w3.org/2000/svg">
<path d="M412.295 17.291C417.076 17.291 421.187 18.9164 423.577 22.3583C424.82 24.0793 425.394 26.4696 425.681 28.6686C425.681 28.7642 425.776 28.8598 425.872 28.8598C425.967 28.8598 426.063 28.7642 426.063 28.6686C429.409 20.8286 436.389 17.291 443.177 17.291C454.172 17.291 458.379 24.3661 458.379 34.5008L457.71 52.3798C457.71 57.6383 458.092 60.6978 461.725 61.4627C462.586 61.6539 463.064 62.2276 463.064 63.1837C463.064 64.331 462.395 65.0003 461.343 65.0003H436.389C435.528 65.0003 434.859 64.4266 434.859 63.3749C434.859 62.4188 435.433 61.7496 436.293 61.4627C440.978 59.6461 441.361 55.4393 441.552 50.85L442.03 38.7076C442.03 34.0227 441.743 26.9476 435.242 26.9476C428.262 26.9476 426.732 35.0744 426.445 42.1496L426.063 52.3798C426.063 57.4471 426.445 60.6022 429.983 61.4627C430.843 61.7496 431.417 62.2276 431.417 63.1837C431.417 64.331 430.557 65.0003 429.696 65.0003H404.646C403.786 65.0003 403.212 64.4266 403.212 63.3749C403.212 62.4188 403.786 61.7496 404.551 61.4627C409.236 59.933 409.618 55.3437 409.809 50.85L410.287 38.7076C410.287 34.0227 410.001 26.9476 403.499 26.9476C396.424 26.9476 394.894 35.2657 394.703 42.4364L394.321 53.5271C394.321 56.9691 394.607 60.9847 398.336 61.4627C399.197 61.6539 399.675 62.2276 399.675 63.1837C399.675 64.331 398.814 65.0003 397.954 65.0003H373C372.139 65.0003 371.47 64.4266 371.47 63.3749C371.47 62.4188 372.043 61.7496 372.904 61.4627C377.398 59.6461 377.971 55.2481 378.162 50.85L378.736 33.3535C378.736 29.7203 377.111 27.9037 372.522 27.9037C372.043 27.5213 371.757 26.9476 371.757 26.1827C371.757 25.2266 372.33 24.0793 373.764 23.8881C378.162 23.3144 383.421 21.1154 386.767 19.2032C388.202 18.2471 389.731 17.4822 391.548 17.4822C392.695 17.4822 394.034 17.9603 394.99 18.9164L394.416 28.6686C394.416 28.7642 394.512 28.8598 394.607 28.8598C394.703 28.8598 394.799 28.7642 394.894 28.6686C398.145 21.5935 404.551 17.291 412.295 17.291Z" fill="url(#paint0_linear_693_1120)"/>
<path d="M331.224 48.4599C331.224 52.4755 333.71 56.3955 338.012 56.3955C345.948 56.3955 346.235 47.695 346.235 43.5838V41.2892C346.235 41.0023 345.948 40.8111 345.661 40.8111C345.47 40.8111 345.087 41.0023 344.609 41.0979C340.02 42.4365 331.224 45.496 331.224 48.4599ZM329.886 28.4775C329.886 33.736 329.216 37.0823 325.966 37.0823C322.715 37.0823 317.839 34.214 317.839 31.0589C317.839 28.1906 321.185 25.0355 323.862 23.1233C329.312 19.2989 335.622 17.3867 342.124 17.3867C352.641 17.3867 362.393 22.8365 362.393 35.6482L361.819 52.1887C361.819 56.9692 363.923 59.3594 365.93 59.3594C366.6 59.3594 367.078 59.455 367.46 59.6462C367.843 59.8375 368.034 60.3155 368.034 60.7935C368.034 61.176 367.938 61.654 367.651 61.9409C365.739 64.0443 360.194 65.7653 355.987 65.7653C350.155 65.7653 346.139 63.0882 346.139 57.4472C346.139 57.3516 346.044 57.3516 345.852 57.3516C345.661 57.3516 345.47 57.3516 345.47 57.4472C342.697 62.9926 336.674 66.0521 330.459 66.0521C322.141 66.0521 316.405 60.2199 316.405 51.615C316.405 49.0335 316.691 47.9818 318.89 46.3565C323.48 43.0101 333.327 39.1857 344.896 36.7955C345.661 36.6043 346.235 36.7955 346.235 35.457C346.235 29.0511 340.594 26.1828 334.475 26.1828C333.519 26.1828 332.563 26.1828 331.798 26.374C330.65 26.5653 329.886 27.0433 329.886 28.4775Z" fill="url(#paint1_linear_693_1120)"/>
<path d="M290.342 17.291C302.198 17.291 309.655 24.1749 309.655 31.9193C309.655 35.3613 307.743 38.4208 302.771 39.5681C296.939 41.0022 280.494 43.01 276.957 43.01C276.574 43.01 276.383 43.2013 276.383 43.6793C276.861 45.2091 277.435 46.5476 278.486 47.9817C281.833 52.571 287.474 54.8657 293.401 54.8657C298.564 54.8657 303.727 52.9535 307.647 49.4159C307.934 49.0335 308.412 48.8422 308.89 48.8422C309.559 48.8422 310.324 49.3203 310.324 50.1808C310.324 50.372 310.324 50.6588 310.229 50.9457C306.596 60.1242 296.365 66.1476 285.561 66.1476C272.654 66.052 262.328 57.9252 262.328 44.1574C262.328 28.3818 275.236 17.291 290.342 17.291ZM284.414 24.8442C278.008 24.8442 274.662 30.2939 274.662 36.5086C274.662 37.1778 274.758 37.7515 274.853 38.0383C274.949 38.4208 275.14 38.7076 275.618 38.7076C277.913 38.7076 295.027 35.6481 295.027 34.5964C295.027 32.2061 291.872 24.8442 284.414 24.8442Z" fill="url(#paint2_linear_693_1120)"/>
<path d="M221.572 1.9927H240.216C247.099 1.9927 252.358 1.51465 255.417 1.51465C260.007 1.51465 260.294 4.86099 260.294 6.48635C260.294 9.35465 259.529 17.099 259.529 19.6805C259.529 20.9234 258.477 21.4971 257.617 21.4971C256.565 21.4971 255.896 20.8278 255.609 19.6805C254.461 14.2307 250.541 10.0239 245.474 8.58977C244.231 8.01611 241.65 7.72928 240.407 7.72928C239.833 7.72928 239.355 8.11172 239.259 8.8766L237.825 50.8493C237.825 57.3507 240.216 60.3147 245.474 61.462C246.335 61.6532 246.813 62.3225 246.813 63.1829C246.813 64.3303 246.048 64.9995 245.092 64.9995H214.592C213.732 64.9995 213.158 64.4259 213.158 63.3742C213.158 62.4181 213.636 61.6532 214.497 61.462C218.799 59.6454 220.711 55.7254 220.902 50.9449L222.337 8.78099C222.337 8.01611 221.667 7.72928 221.094 7.72928C219.659 7.72928 216.982 7.92051 215.739 8.39855C210.385 9.8327 206.561 13.9439 204.171 19.4893C203.693 20.8278 202.832 21.4971 201.78 21.4971C200.92 21.4971 200.251 20.8278 200.251 19.8717L202.545 6.29514C202.832 4.47855 203.788 1.51465 207.708 1.51465C212.202 1.51465 216.409 1.9927 221.572 1.9927Z" fill="url(#paint3_linear_693_1120)"/>
<path d="M154.482 17.482C155.82 17.482 157.063 17.96 158.02 18.9161L157.446 28.5727C157.446 28.8595 157.541 28.9551 157.637 28.9551C157.733 28.9551 157.828 28.8595 157.924 28.6683C160.983 22.7405 167.772 17.0039 172.648 17.0039C176.185 17.0039 176.759 21.7844 176.759 29.0507C176.759 32.7795 176.09 36.5083 173.317 36.5083C172.074 36.5083 170.736 36.0303 169.684 35.361C167.294 34.2137 164.521 32.0146 161.844 32.0146C158.976 32.0146 157.828 34.7873 157.733 37.7512L157.255 51.1366C157.255 57.3512 160.505 60.2195 167.867 61.4624C168.537 61.6537 169.206 62.2273 169.206 63.1834C169.206 64.3307 168.345 65 167.485 65H135.551C134.691 65 134.021 64.4263 134.021 63.3746C134.021 62.4185 134.595 61.6537 135.456 61.4624C140.714 60.1239 141.001 55.439 141.097 50.8498L141.67 33.3532C141.67 29.72 140.14 27.9034 135.551 27.9034C135.073 27.521 134.691 26.9473 134.691 26.1824C134.691 25.2263 135.264 24.079 136.89 23.8878C141.097 23.3142 146.451 21.1151 149.797 19.2029C151.231 18.2468 152.761 17.482 154.482 17.482Z" fill="white"/>
<path d="M108.296 41.002L108.488 32.8751C108.488 29.1463 106.289 27.4254 101.795 27.4254C101.317 27.1385 100.935 26.3737 100.935 25.7044C100.935 24.7483 101.413 23.601 103.038 23.4098C107.245 22.8361 113.268 20.6371 116.615 18.5337C118.144 17.6732 119.578 17.0039 121.395 17.0039C122.638 17.0039 124.359 17.482 125.411 18.4381L124.263 50.1805C124.263 54.1005 125.411 56.7776 127.61 57.9249C128.375 58.3073 129.331 58.6898 130.095 58.881C130.669 59.0722 130.956 59.5503 130.956 60.2195C130.956 60.7932 130.574 61.2712 130.191 61.6537C127.418 64.0439 122.638 65.6693 118.335 65.6693C112.503 65.6693 108.392 62.6098 108.392 56.8732C108.392 56.2039 108.392 55.5346 108.488 54.8654C108.488 54.5785 108.392 54.4829 108.296 54.4829C108.105 54.4829 108.01 54.5785 108.01 54.7698C105.333 61.6537 97.9706 66.1473 91.1823 66.1473C80.1872 66.1473 76.3628 59.0722 76.3628 48.9376L76.9365 32.8751C76.9365 29.1463 74.7374 27.4254 70.2438 27.4254C69.5745 27.1385 69.2877 26.3737 69.2877 25.7044C69.2877 24.7483 69.7657 23.601 71.3911 23.4098C75.6935 22.8361 81.5257 20.6371 84.8721 18.5337C86.4018 17.6732 87.836 17.0039 89.557 17.0039C90.8955 17.0039 92.7121 17.482 93.5726 18.4381L92.7121 44.7307C92.7121 49.6068 93.1901 55.5346 99.7872 55.5346C106.862 55.5346 108.201 48.1727 108.296 41.002Z" fill="white"/>
<path d="M36.0088 0.941406C55.9912 0.941406 65.5522 15.0917 65.5522 30.2936C65.5522 47.6946 53.1229 66.1473 29.6985 66.1473C9.33366 66.1473 0.0595131 52.3795 0.0595131 37.4643C0.0595131 19.9677 12.8712 0.941406 36.0088 0.941406ZM29.1249 9.64189C19.4683 9.64189 15.1659 18.1512 15.1659 27.999C15.1659 41.3843 23.1971 57.5424 36.3912 57.5424C46.1434 57.5424 50.4459 49.2243 50.4459 39.4721C50.4459 25.9912 42.1278 9.64189 29.1249 9.64189Z" fill="white"/>
<defs>
<linearGradient id="paint0_linear_693_1120" x1="465" y1="6" x2="341.933" y2="147.289" gradientUnits="userSpaceOnUse">
<stop stop-color="#CC00FF"/>
<stop offset="1" stop-color="#8000FF"/>
</linearGradient>
<linearGradient id="paint1_linear_693_1120" x1="465" y1="6.00001" x2="341.933" y2="147.289" gradientUnits="userSpaceOnUse">
<stop stop-color="#CC00FF"/>
<stop offset="1" stop-color="#8000FF"/>
</linearGradient>
<linearGradient id="paint2_linear_693_1120" x1="465" y1="6" x2="341.933" y2="147.289" gradientUnits="userSpaceOnUse">
<stop stop-color="#CC00FF"/>
<stop offset="1" stop-color="#8000FF"/>
</linearGradient>
<linearGradient id="paint3_linear_693_1120" x1="465" y1="6.00001" x2="341.933" y2="147.289" gradientUnits="userSpaceOnUse">
<stop stop-color="#CC00FF"/>
<stop offset="1" stop-color="#8000FF"/>
</linearGradient>
</defs>
</svg>
