<svg width="175" height="47" viewBox="0 0 175 47" fill="none" xmlns="http://www.w3.org/2000/svg">
<rect x="0.125977" width="174.126" height="46.3544" rx="23.1772" fill="url(#paint0_linear_53_291)"/>
<rect x="0.125977" width="174.126" height="46.3544" rx="23.1772" fill="url(#paint1_radial_53_291)" fill-opacity="0.58"/>
<rect x="0.125977" width="174.126" height="46.3544" rx="23.1772" fill="url(#paint2_radial_53_291)" fill-opacity="0.18" style="mix-blend-mode:overlay"/>
<path d="M66.5141 28.7669C65.7207 28.7669 64.982 28.638 64.2977 28.3802C63.6234 28.1124 63.0334 27.7406 62.5277 27.2646C62.0319 26.7787 61.6451 26.2085 61.3675 25.554C61.0898 24.8995 60.951 24.1855 60.951 23.4121C60.951 22.6386 61.0898 21.9246 61.3675 21.2701C61.6451 20.6157 62.0368 20.0504 62.5425 19.5744C63.0483 19.0885 63.6383 18.7167 64.3126 18.4588C64.9869 18.1911 65.7257 18.0572 66.5289 18.0572C67.3817 18.0572 68.1602 18.206 68.8642 18.5035C69.5683 18.791 70.1633 19.2224 70.6492 19.7976L69.3997 20.9726C69.0229 20.5661 68.6015 20.2636 68.1354 20.0653C67.6693 19.857 67.1636 19.7529 66.6182 19.7529C66.0728 19.7529 65.572 19.8422 65.1158 20.0207C64.6696 20.1992 64.2779 20.452 63.9408 20.7793C63.6135 21.1065 63.3557 21.4933 63.1673 21.9395C62.9888 22.3857 62.8995 22.8766 62.8995 23.4121C62.8995 23.9476 62.9888 24.4384 63.1673 24.8846C63.3557 25.3309 63.6135 25.7176 63.9408 26.0449C64.2779 26.3721 64.6696 26.625 65.1158 26.8035C65.572 26.982 66.0728 27.0712 66.6182 27.0712C67.1636 27.0712 67.6693 26.972 68.1354 26.7737C68.6015 26.5655 69.0229 26.2531 69.3997 25.8366L70.6492 27.0266C70.1633 27.5918 69.5683 28.0232 68.8642 28.3207C68.1602 28.6182 67.3768 28.7669 66.5141 28.7669ZM77.163 28.7669C76.3498 28.7669 75.6011 28.633 74.9169 28.3653C74.2327 28.0976 73.6377 27.7257 73.132 27.2497C72.6262 26.7638 72.2345 26.1986 71.9569 25.554C71.6792 24.8995 71.5404 24.1855 71.5404 23.4121C71.5404 22.6386 71.6792 21.9296 71.9569 21.285C72.2345 20.6305 72.6262 20.0653 73.132 19.5893C73.6377 19.1034 74.2327 18.7266 74.9169 18.4588C75.6011 18.1911 76.3449 18.0572 77.1481 18.0572C77.9612 18.0572 78.705 18.1911 79.3793 18.4588C80.0635 18.7266 80.6585 19.1034 81.1642 19.5893C81.67 20.0653 82.0616 20.6305 82.3393 21.285C82.617 21.9296 82.7558 22.6386 82.7558 23.4121C82.7558 24.1855 82.617 24.8995 82.3393 25.554C82.0616 26.2085 81.67 26.7737 81.1642 27.2497C80.6585 27.7257 80.0635 28.0976 79.3793 28.3653C78.705 28.633 77.9662 28.7669 77.163 28.7669ZM77.1481 27.0712C77.6737 27.0712 78.1596 26.982 78.6058 26.8035C79.052 26.625 79.4388 26.3721 79.766 26.0449C80.0932 25.7077 80.3461 25.321 80.5246 24.8846C80.713 24.4384 80.8072 23.9476 80.8072 23.4121C80.8072 22.8766 80.713 22.3907 80.5246 21.9544C80.3461 21.5081 80.0932 21.1214 79.766 20.7941C79.4388 20.457 79.052 20.1992 78.6058 20.0207C78.1596 19.8422 77.6737 19.7529 77.1481 19.7529C76.6225 19.7529 76.1366 19.8422 75.6904 20.0207C75.2541 20.1992 74.8673 20.457 74.5302 20.7941C74.2029 21.1214 73.9451 21.5081 73.7567 21.9544C73.5782 22.3907 73.4889 22.8766 73.4889 23.4121C73.4889 23.9376 73.5782 24.4235 73.7567 24.8698C73.9451 25.316 74.2029 25.7077 74.5302 26.0449C74.8574 26.3721 75.2441 26.625 75.6904 26.8035C76.1366 26.982 76.6225 27.0712 77.1481 27.0712ZM84.8055 28.6182V18.206H86.397L92.927 26.2234H92.1386V18.206H94.0574V28.6182H92.4659L85.9359 20.6008H86.7243V28.6182H84.8055ZM96.8475 28.6182V18.206H98.439L104.969 26.2234H104.181V18.206H106.099V28.6182H104.508L97.9779 20.6008H98.7663V28.6182H96.8475ZM110.674 22.5345H115.851V24.126H110.674V22.5345ZM110.823 26.9968H116.699V28.6182H108.889V18.206H116.49V19.8273H110.823V26.9968ZM123.674 28.7669C122.88 28.7669 122.142 28.638 121.457 28.3802C120.783 28.1124 120.193 27.7406 119.687 27.2646C119.191 26.7787 118.805 26.2085 118.527 25.554C118.249 24.8995 118.111 24.1855 118.111 23.4121C118.111 22.6386 118.249 21.9246 118.527 21.2701C118.805 20.6157 119.196 20.0504 119.702 19.5744C120.208 19.0885 120.798 18.7167 121.472 18.4588C122.146 18.1911 122.885 18.0572 123.688 18.0572C124.541 18.0572 125.32 18.206 126.024 18.5035C126.728 18.791 127.323 19.2224 127.809 19.7976L126.559 20.9726C126.182 20.5661 125.761 20.2636 125.295 20.0653C124.829 19.857 124.323 19.7529 123.778 19.7529C123.232 19.7529 122.732 19.8422 122.275 20.0207C121.829 20.1992 121.437 20.452 121.1 20.7793C120.773 21.1065 120.515 21.4933 120.327 21.9395C120.148 22.3857 120.059 22.8766 120.059 23.4121C120.059 23.9476 120.148 24.4384 120.327 24.8846C120.515 25.3309 120.773 25.7176 121.1 26.0449C121.437 26.3721 121.829 26.625 122.275 26.8035C122.732 26.982 123.232 27.0712 123.778 27.0712C124.323 27.0712 124.829 26.972 125.295 26.7737C125.761 26.5655 126.182 26.2531 126.559 25.8366L127.809 27.0266C127.323 27.5918 126.728 28.0232 126.024 28.3207C125.32 28.6182 124.536 28.7669 123.674 28.7669ZM131.658 28.6182V19.8422H128.207V18.206H137.042V19.8422H133.591V28.6182H131.658Z" fill="white"/>
<path d="M50.626 19.9998V19.3998C50.626 18.5597 50.626 18.1396 50.4625 17.8188C50.3187 17.5365 50.0892 17.3071 49.807 17.1632C49.4861 16.9998 49.0661 16.9998 48.226 16.9998H41.776C40.9359 16.9998 40.5159 16.9998 40.195 17.1632C39.9127 17.3071 39.6833 17.5365 39.5395 17.8188C39.376 18.1396 39.376 18.5597 39.376 19.3998V19.9998M39.376 19.9998V26.5998C39.376 27.4398 39.376 27.8599 39.5395 28.1808C39.6833 28.463 39.9127 28.6925 40.195 28.8363C40.5159 28.9998 40.9359 28.9998 41.776 28.9998H50.476C51.3161 28.9998 51.7361 28.9998 52.057 28.8363C52.3392 28.6925 52.5687 28.463 52.7125 28.1808C52.876 27.8599 52.876 27.4398 52.876 26.5998V22.3998C52.876 21.5597 52.876 21.1396 52.7125 20.8188C52.5687 20.5365 52.3392 20.3071 52.057 20.1632C51.7361 19.9998 51.3161 19.9998 50.476 19.9998H39.376ZM52.876 22.9998H51.376C50.5475 22.9998 49.876 23.6713 49.876 24.4998C49.876 25.3282 50.5475 25.9998 51.376 25.9998H52.876" stroke="white" stroke-width="1.14545" stroke-linecap="round" stroke-linejoin="round"/>
<defs>
<linearGradient id="paint0_linear_53_291" x1="174.252" y1="0" x2="84.966" y2="112.973" gradientUnits="userSpaceOnUse">
<stop stop-color="#CC00FF"/>
<stop offset="1" stop-color="#8000FF"/>
</linearGradient>
<radialGradient id="paint1_radial_53_291" cx="0" cy="0" r="1" gradientUnits="userSpaceOnUse" gradientTransform="translate(87.1891 4.16001) rotate(90) scale(42.1944 158.494)">
<stop stop-color="white"/>
<stop offset="0.64275" stop-color="white" stop-opacity="0"/>
</radialGradient>
<radialGradient id="paint2_radial_53_291" cx="0" cy="0" r="1" gradientUnits="userSpaceOnUse" gradientTransform="translate(86.2976 5.05144) rotate(88.7636) scale(41.3126 155.182)">
<stop stop-color="white"/>
<stop offset="0.154538" stop-color="white" stop-opacity="0"/>
</radialGradient>
</defs>
</svg>
