<svg width="49" height="49" viewBox="0 0 49 49" fill="none" xmlns="http://www.w3.org/2000/svg">
<circle cx="24.0551" cy="24.0551" r="24.0551" fill="#ADB4FF" fill-opacity="0.31"/>
<path d="M32.5264 15.6118C30.9453 14.8812 29.2498 14.3428 27.4771 14.0345C27.4448 14.0285 27.4125 14.0434 27.3959 14.0732C27.1778 14.4638 26.9363 14.9734 26.7672 15.3739C24.8605 15.0864 22.9635 15.0864 21.0959 15.3739C20.9268 14.9644 20.6765 14.4638 20.4574 14.0732C20.4408 14.0444 20.4085 14.0295 20.3763 14.0345C18.6045 14.3418 16.909 14.8802 15.3269 15.6118C15.3132 15.6178 15.3015 15.6277 15.2937 15.6406C12.0777 20.4796 11.1967 25.1997 11.6289 29.8612C11.6308 29.884 11.6435 29.9059 11.6611 29.9197C13.783 31.4891 15.8383 32.4419 17.8555 33.0734C17.8878 33.0833 17.922 33.0714 17.9425 33.0446C18.4197 32.3883 18.845 31.6963 19.2098 30.9686C19.2313 30.926 19.2107 30.8754 19.1667 30.8586C18.4921 30.6008 17.8496 30.2865 17.2317 29.9296C17.1828 29.9009 17.1789 29.8305 17.2238 29.7968C17.3539 29.6986 17.4839 29.5965 17.6081 29.4934C17.6306 29.4746 17.6619 29.4706 17.6883 29.4825C21.7481 31.3493 26.1433 31.3493 30.1552 29.4825C30.1816 29.4696 30.2129 29.4736 30.2364 29.4924C30.3606 29.5955 30.4906 29.6986 30.6217 29.7968C30.6666 29.8305 30.6637 29.9009 30.6148 29.9296C29.9968 30.2935 29.3544 30.6008 28.6788 30.8576C28.6348 30.8744 28.6152 30.926 28.6367 30.9686C29.0093 31.6953 29.4346 32.3873 29.903 33.0436C29.9225 33.0714 29.9577 33.0833 29.99 33.0734C32.017 32.4419 34.0723 31.4891 36.1941 29.9197C36.2127 29.9059 36.2244 29.885 36.2264 29.8622C36.7437 24.473 35.3601 19.7916 32.5587 15.6416C32.5518 15.6277 32.5401 15.6178 32.5264 15.6118ZM19.816 27.0229C18.5937 27.0229 17.5866 25.8927 17.5866 24.5047C17.5866 23.1167 18.5742 21.9865 19.816 21.9865C21.0676 21.9865 22.0649 23.1266 22.0454 24.5047C22.0454 25.8927 21.0578 27.0229 19.816 27.0229ZM28.0588 27.0229C26.8366 27.0229 25.8295 25.8927 25.8295 24.5047C25.8295 23.1167 26.817 21.9865 28.0588 21.9865C29.3104 21.9865 30.3078 23.1266 30.2882 24.5047C30.2882 25.8927 29.3104 27.0229 28.0588 27.0229Z" fill="white"/>
</svg>
