<svg width="272" height="28" viewBox="0 0 272 28" fill="none" xmlns="http://www.w3.org/2000/svg">
<path d="M76.4801 23.8619C76.4801 24.6518 76.2011 25.3241 75.6398 25.8854C75.0784 26.4468 74.4062 26.7258 73.6163 26.7258C72.8264 26.7258 72.1541 26.4468 71.5928 25.8854C71.0314 25.3241 70.7524 24.6518 70.7524 23.8619V2.86383C70.7524 2.07393 71.0314 1.40167 71.5928 0.840327C72.1541 0.278989 72.8264 0 73.6163 0C74.4062 0 75.0784 0.278989 75.6398 0.840327L86.1405 11.3411L91.7539 16.9544V2.8672C91.7539 2.07729 92.0329 1.40503 92.5942 0.843687C93.1556 0.282348 93.8278 0.00335946 94.6177 0.00335946C95.4076 0.00335946 96.0799 0.282348 96.6412 0.843687C97.2026 1.40503 97.4816 2.07729 97.4816 2.8672V23.8653C97.4816 24.6552 97.2026 25.3275 96.6412 25.8888C96.0799 26.4501 95.4076 26.7291 94.6177 26.7291C93.8278 26.7291 93.1556 26.4501 92.5942 25.8888L82.0935 15.3881L76.4801 9.77468V23.8619Z" fill="white"/>
<path d="M103.296 13.3646C103.296 9.67391 104.6 6.52436 107.209 3.91598C109.817 1.30761 112.967 0.00341797 116.657 0.00341797C120.348 0.00341797 123.498 1.30761 126.106 3.91598C128.714 6.52436 130.019 9.67391 130.019 13.3646V23.8654C130.019 24.6553 129.74 25.3309 129.178 25.8889C128.617 26.4502 127.945 26.7292 127.155 26.7292C126.365 26.7292 125.693 26.4502 125.131 25.8889C124.57 25.3275 124.291 24.6553 124.291 23.8654V19.0923H109.017V23.8654C109.017 24.6553 108.738 25.3309 108.177 25.8889C107.616 26.4502 106.943 26.7292 106.153 26.7292C105.363 26.7292 104.691 26.4502 104.13 25.8889C103.569 25.3275 103.29 24.6553 103.29 23.8654V13.3646H103.296ZM124.294 13.3646C124.294 11.2537 123.548 9.45206 122.059 7.963C120.57 6.47394 118.768 5.73109 116.657 5.73109C114.547 5.73109 112.745 6.47394 111.256 7.963C109.767 9.45206 109.021 11.2537 109.021 13.3646H124.294Z" fill="white"/>
<path d="M138.704 5.72767C137.914 5.72767 137.242 5.44868 136.681 4.88734C136.119 4.326 135.84 3.65374 135.84 2.86383C135.84 2.07393 136.119 1.40167 136.681 0.840327C137.242 0.278989 137.914 0 138.704 0H149.205C152.896 0 156.045 1.30419 158.654 3.91256C161.262 6.52094 162.566 9.67048 162.566 13.3612C162.566 17.0519 161.262 20.2015 158.654 22.8098C156.045 25.4182 152.896 26.7224 149.205 26.7224H138.704C137.914 26.7224 137.242 26.4434 136.681 25.8821C136.119 25.3207 135.84 24.6485 135.84 23.8586V13.3578C135.84 12.5679 136.119 11.8957 136.681 11.3343C137.242 10.773 137.914 10.494 138.704 10.494C139.494 10.494 140.166 10.773 140.728 11.3343C141.289 11.8957 141.568 12.5679 141.568 13.3578V20.9947H149.205C151.319 20.9947 153.117 20.2485 154.607 18.7595C156.096 17.2704 156.842 15.4687 156.842 13.3578C156.842 11.2469 156.096 9.44528 154.607 7.95622C153.117 6.46716 151.316 5.72095 149.205 5.72095H138.704V5.72767Z" fill="white"/>
<path d="M168.388 2.86383C168.388 2.07393 168.667 1.40167 169.229 0.840327C169.79 0.278989 170.462 0 171.252 0C172.042 0 172.714 0.278989 173.276 0.840327C173.837 1.40167 174.116 2.07393 174.116 2.86383V23.8619C174.116 24.6518 173.837 25.3241 173.276 25.8854C172.714 26.4468 172.042 26.7258 171.252 26.7258C170.462 26.7258 169.79 26.4468 169.229 25.8854C168.667 25.3241 168.388 24.6518 168.388 23.8619V2.86383Z" fill="white"/>
<path d="M179.931 13.3646C179.931 9.67391 181.235 6.52436 183.844 3.91598C186.452 1.30761 189.602 0.00341797 193.292 0.00341797C196.983 0.00341797 200.133 1.30761 202.741 3.91598C205.349 6.52436 206.653 9.67391 206.653 13.3646V23.8654C206.653 24.6553 206.374 25.3309 205.813 25.8889C205.252 26.4502 204.58 26.7292 203.79 26.7292C203 26.7292 202.327 26.4502 201.766 25.8889C201.205 25.3275 200.926 24.6553 200.926 23.8654V19.0923H185.652V23.8654C185.652 24.6553 185.373 25.3309 184.812 25.8889C184.25 26.4502 183.578 26.7292 182.788 26.7292C181.998 26.7292 181.326 26.4502 180.765 25.8889C180.203 25.3275 179.924 24.6553 179.924 23.8654V13.3646H179.931ZM200.929 13.3646C200.929 11.2537 200.183 9.45206 198.694 7.963C197.205 6.47394 195.403 5.73109 193.292 5.73109C191.181 5.73109 189.38 6.47394 187.891 7.963C186.402 9.45206 185.655 11.2537 185.655 13.3646H200.929Z" fill="white"/>
<path d="M218.203 23.8619C218.203 24.6518 217.924 25.3241 217.362 25.8854C216.801 26.4468 216.129 26.7258 215.339 26.7258C214.549 26.7258 213.877 26.4468 213.315 25.8854C212.754 25.3241 212.475 24.6518 212.475 23.8619V2.86383C212.475 2.07393 212.754 1.40167 213.315 0.840327C213.877 0.278989 214.549 0 215.339 0C216.129 0 216.801 0.278989 217.362 0.840327L227.863 11.3411L233.477 16.9544V2.8672C233.477 2.07729 233.756 1.40503 234.317 0.843687C234.878 0.282348 235.55 0.00335946 236.34 0.00335946C237.13 0.00335946 237.803 0.282348 238.364 0.843687C238.925 1.40503 239.204 2.07729 239.204 2.8672V23.8653C239.204 24.6552 238.925 25.3275 238.364 25.8888C237.803 26.4501 237.13 26.7291 236.34 26.7291C235.55 26.7291 234.878 26.4501 234.317 25.8888L223.816 15.3881L218.203 9.77468V23.8619Z" fill="white"/>
<path d="M268.884 0C269.674 0 270.347 0.278989 270.908 0.840327C271.469 1.40167 271.748 2.07393 271.748 2.86383C271.748 3.65374 271.469 4.326 270.908 4.88734C270.347 5.44868 269.674 5.72767 268.884 5.72767H253.133C252.471 5.72767 251.91 5.9596 251.442 6.42346C250.979 6.88732 250.747 7.45202 250.747 8.1142C250.747 8.77638 250.979 9.33771 251.442 9.80493C251.906 10.2688 252.471 10.5007 253.133 10.5007H263.634C265.873 10.5007 267.785 11.294 269.372 12.8772C270.955 14.4603 271.748 16.3729 271.748 18.6149C271.748 20.8569 270.955 22.7661 269.372 24.3527C267.789 25.9359 265.876 26.7291 263.634 26.7291H247.886C247.096 26.7291 246.424 26.4501 245.863 25.8888C245.301 25.3275 245.022 24.6552 245.022 23.8653C245.022 23.0754 245.301 22.4031 245.863 21.8418C246.424 21.2804 247.096 21.0015 247.886 21.0015H263.634C264.296 21.0015 264.857 20.7695 265.325 20.3057C265.789 19.8418 266.02 19.2771 266.02 18.6149C266.02 17.9527 265.789 17.3914 265.325 16.9242C264.861 16.4603 264.296 16.2284 263.634 16.2284H253.133C250.895 16.2284 248.982 15.4351 247.395 13.852C245.812 12.2688 245.019 10.3562 245.019 8.1142C245.019 5.87221 245.812 3.96298 247.395 2.37645C248.979 0.793269 250.891 0 253.133 0H268.884Z" fill="white"/>
<path d="M33.1022 4.8336C32.2686 3.1395 30.9408 2.21178 30.3358 1.8017C27.7812 0.0706271 24.9443 0.020208 23.9897 0.00340143C21.1594 -0.0470182 18.746 0.894149 16.8906 2.00002C15.0351 0.894149 12.6217 -0.0470182 9.79149 0.00340143C8.83352 0.020208 5.99994 0.0706271 3.44534 1.8017C2.84031 2.21178 1.51595 3.13614 0.678985 4.8336C0.228569 5.75124 0 6.75627 0 7.85206V24.8536C0 26.4603 1.45881 27.7645 3.25711 27.7645C5.05541 27.7645 6.51422 26.4603 6.51422 24.8536C6.55455 19.462 6.59153 14.0738 6.63186 8.6823C6.94446 7.25374 8.36294 6.22182 9.97637 6.23863C11.6167 6.25544 13.0251 7.34786 13.2772 8.81003C13.3545 14.1579 13.4318 19.5057 13.5057 24.8569C13.694 26.6317 15.1528 27.9897 16.8704 27.9997C18.6015 28.0098 20.0805 26.6451 20.2687 24.8569C20.346 19.5091 20.4233 14.1612 20.4973 8.81003C20.746 7.34786 22.1544 6.25544 23.7947 6.23863C25.4081 6.22182 26.8266 7.25374 27.1426 8.6823C27.1829 14.0738 27.2199 19.462 27.2602 24.8536C27.2602 26.4603 28.719 27.7645 30.5173 27.7645C32.3156 27.7645 33.7744 26.4603 33.7744 24.8536V7.85206C33.7744 6.75627 33.5492 5.75124 33.0954 4.8336" fill="white"/>
<path d="M59.7539 25.8686C60.6749 24.9611 62.2715 23.2233 63.4009 20.9309C64.5438 18.6082 64.4396 17.2704 64.3186 16.6116C64.3186 16.5948 64.3085 16.5544 64.2984 16.5007C64.1707 15.8553 63.5757 13.294 61.8077 12.7696C59.811 12.178 57.3573 14.2217 56.2548 16.1107C55.2934 17.7611 55.8682 18.4132 54.4766 21.109C53.6598 22.6855 52.9338 23.4855 52.0464 23.9628C51.1725 24.43 50.154 24.5779 50.1069 24.5846C50.0464 24.5913 49.4112 24.6149 48.7322 24.6115C46.0532 24.6014 43.8952 22.672 43.3104 20.262C43.1894 19.7678 43.1658 19.3914 43.1558 19.025C43.0516 15.6536 45.2028 12.699 46.7288 10.652C48.2381 8.62847 49.2565 7.79487 48.9775 6.65538C48.8162 5.99321 48.2515 5.36464 47.586 5.19322C45.5221 4.65541 42.9776 8.61839 42.5541 9.29737C40.7759 11.6671 39.2768 16.262 41.1322 20.2653C41.5121 21.0888 43.0953 24.2115 46.6582 25.4619C47.307 25.6905 50.2985 26.7392 52.9372 25.2838C54.3792 24.4905 55.1422 23.2636 55.8615 22.1073C57.5758 19.3611 57.1825 17.6805 58.8497 16.6586C59.5657 16.2217 60.7892 15.7847 61.4951 16.346C62.7051 17.3141 62.1942 20.03 62.1169 20.3931C61.2329 24.5308 57.0649 26.7056 56.7724 26.8501C52.4296 29.035 47.1961 27.8619 43.7978 25.3611C40.897 23.2266 39.7373 20.4267 39.2701 19.2502C38.7861 18.0401 37.2768 14.0839 38.7827 9.60325C39.865 6.38312 42.9406 1.58653 46.8969 1.76468C49.0515 1.86216 51.4683 3.43189 51.7573 5.30078C51.9893 6.78648 50.7557 7.42176 48.6179 10.7595C47.0717 13.173 45.1961 16.1914 45.9759 19.109C46.0666 19.4519 46.554 21.267 47.9019 21.6771C49.1422 22.0569 50.7254 21.1292 51.5422 19.9628C53.5792 17.0519 50.8767 12.578 52.3523 11.6637C52.6346 11.4889 53.1388 11.4016 54.1002 11.8721C54.48 11.9562 55.0514 12.0604 55.7506 12.0839C56.7052 12.1175 59.6228 12.2183 60.7623 10.4772C61.5152 9.32762 61.1488 7.90243 60.9673 7.18983C60.2917 4.54784 57.7808 2.24871 56.4464 2.71929C55.8716 2.92097 55.4313 3.66382 55.522 4.26213C55.6699 5.22011 57.0917 5.15288 58.3489 6.67555C58.6615 7.05874 59.5791 8.17133 59.2228 9.14275C58.9405 9.90913 58.0127 10.1881 57.7338 10.2722C56.527 10.6352 54.9035 10.2789 54.0867 9.24359C52.9876 7.85537 54.3926 6.57471 53.4716 4.33608C52.5372 2.06384 50.191 1.20334 49.9927 1.13612C48.6246 0.665532 47.4145 0.820152 46.8162 0.941159C48.1305 0.45713 51.9826 -0.763024 56.4195 0.705868C56.8027 0.833598 63.5387 3.18315 65.5152 9.91922C66.453 13.1192 65.8782 15.8116 65.6328 16.8973C64.4698 22.0266 60.9337 24.9712 59.7539 25.8754" fill="white"/>
</svg>
