<svg width="229" height="36" viewBox="0 0 229 36" fill="none" xmlns="http://www.w3.org/2000/svg">
<path d="M228.525 7.25419C226.285 7.87471 223.933 9.29825 221.832 8.99408C204.768 6.57283 189.306 12.6321 173.581 17.2677C161.772 20.7475 150.55 22.2805 138.503 16.2943C133.574 13.8487 125.78 15.4913 119.701 16.9027C109.93 19.1658 100.398 22.5604 90.9276 25.9063C81.983 29.0576 74.2143 26.758 68.5973 20.2851C62.4299 13.1796 55.2242 12.9484 47.468 15.0411C33.7446 18.7277 21.5974 25.6508 10.3135 34.0096C6.79816 36.6134 0.543172 34.7397 0.0177542 30.4933C-0.182405 28.8508 1.34382 26.0523 2.88254 25.298C12.6528 20.492 22.5357 15.832 32.6187 11.6587C41.6259 7.93554 51.0334 4.20023 60.9538 7.12034C65.8452 8.56822 70.5989 11.6222 74.452 14.9803C79.3434 19.2509 84.2848 18.8251 89.7392 17.3529C102.074 14.0069 114.309 10.2595 126.794 7.52187C131.16 6.56067 136.639 6.9622 140.667 8.75076C149.674 12.7416 158.369 12.5834 167.451 9.90661C178.272 6.70666 189.018 3.1417 200.014 0.659615C204.818 -0.423256 210.185 0.720473 215.289 1.02465C217.879 1.18282 220.543 1.38964 222.983 2.144C225.122 2.80102 226.998 4.2611 229 5.36831C228.85 5.98883 228.7 6.62149 228.537 7.24201L228.525 7.25419Z" fill="url(#paint0_linear_363_542)"/>
<defs>
<linearGradient id="paint0_linear_363_542" x1="229" y1="0.203125" x2="176.855" y2="115.124" gradientUnits="userSpaceOnUse">
<stop stop-color="#CC00FF"/>
<stop offset="1" stop-color="#8000FF"/>
</linearGradient>
</defs>
</svg>
