<svg width="403" height="35" viewBox="0 0 403 35" fill="none" xmlns="http://www.w3.org/2000/svg">
<path d="M402.163 7.05131C398.223 7.67183 394.084 9.09537 390.385 8.7912C360.356 6.36995 333.145 12.4292 305.472 17.0648C284.69 20.5446 264.942 22.0777 243.741 16.0914C235.067 13.6459 221.351 15.2884 210.652 16.6998C193.458 18.9629 176.682 22.3575 160.017 25.7034C144.276 28.8547 130.604 26.5551 120.719 20.0823C109.866 12.9767 97.185 12.7455 83.5355 14.8382C59.3846 18.5249 38.0077 25.4479 18.1499 33.8067C11.9636 36.4105 0.955889 34.5368 0.0312444 30.2905C-0.321001 28.6479 2.36489 25.8494 5.07278 25.0951C22.2668 20.2891 39.6588 15.6291 57.4032 11.4558C73.2543 7.73266 89.8098 3.99735 107.268 6.91745C115.876 8.36534 124.242 11.4193 131.023 14.7774C139.63 19.0481 148.327 18.6222 157.925 17.15C179.632 13.804 201.163 10.0566 223.135 7.31899C230.818 6.35779 240.461 6.75932 247.55 8.54788C263.401 12.5387 278.701 12.3805 294.685 9.70373C313.728 6.50378 332.639 2.93882 351.991 0.456734C360.444 -0.626136 369.889 0.517592 378.871 0.821769C383.428 0.979941 388.118 1.18676 392.411 1.94112C396.175 2.59814 399.478 4.05822 403 5.16543C402.736 5.78595 402.472 6.41861 402.185 7.03913L402.163 7.05131Z" fill="url(#paint0_linear_363_582)"/>
<defs>
<linearGradient id="paint0_linear_363_582" x1="403" y1="0.000244141" x2="369.496" y2="129.943" gradientUnits="userSpaceOnUse">
<stop stop-color="#CC00FF"/>
<stop offset="1" stop-color="#8000FF"/>
</linearGradient>
</defs>
</svg>
