<svg width="229" height="35" viewBox="0 0 229 35" fill="none" xmlns="http://www.w3.org/2000/svg">
<path d="M228.525 7.05107C226.285 7.67159 223.933 9.09513 221.832 8.79095C204.768 6.3697 189.306 12.4289 173.581 17.0646C161.772 20.5444 150.55 22.0774 138.503 16.0912C133.574 13.6456 125.78 15.2882 119.701 16.6996C109.93 18.9626 100.398 22.3572 90.9276 25.7032C81.983 28.8545 74.2143 26.5549 68.5973 20.082C62.4299 12.9764 55.2242 12.7453 47.468 14.838C33.7446 18.5246 21.5974 25.4477 10.3135 33.8065C6.79816 36.4102 0.543172 34.5365 0.0177542 30.2902C-0.182405 28.6477 1.34382 25.8492 2.88254 25.0948C12.6528 20.2888 22.5357 15.6289 32.6187 11.4555C41.6259 7.73242 51.0334 3.99711 60.9538 6.91721C65.8452 8.36509 70.5989 11.4191 74.452 14.7772C79.3434 19.0478 84.2848 18.622 89.7392 17.1497C102.074 13.8038 114.309 10.0563 126.794 7.31875C131.16 6.35754 136.639 6.75907 140.667 8.54763C149.674 12.5384 158.369 12.3802 167.451 9.70348C178.272 6.50354 189.018 2.93858 200.014 0.45649C204.818 -0.626381 210.185 0.517348 215.289 0.821525C217.879 0.979697 220.543 1.18652 222.983 1.94088C225.122 2.5979 226.998 4.05798 229 5.16518C228.85 5.78571 228.7 6.41837 228.537 7.03889L228.525 7.05107Z" fill="url(#paint0_linear_363_531)"/>
<defs>
<linearGradient id="paint0_linear_363_531" x1="229" y1="0" x2="176.855" y2="114.921" gradientUnits="userSpaceOnUse">
<stop stop-color="#CC00FF"/>
<stop offset="1" stop-color="#8000FF"/>
</linearGradient>
</defs>
</svg>
