<svg width="121" height="121" viewBox="0 0 121 121" fill="none" xmlns="http://www.w3.org/2000/svg">
<path d="M93.4608 111.79C97.4417 107.868 104.343 100.356 109.224 90.4479C114.164 80.4087 113.714 74.6264 113.191 71.7788C113.191 71.7061 113.147 71.5318 113.103 71.2994C112.551 68.5099 109.98 57.4391 102.338 55.1727C93.7078 52.6157 83.102 61.449 78.3367 69.614C74.1815 76.7475 76.6659 79.5661 70.6511 91.2179C67.1206 98.0318 63.9825 101.49 60.1469 103.553C56.3695 105.572 51.9674 106.211 51.764 106.24C51.5025 106.269 48.7566 106.371 45.8218 106.357C34.2426 106.313 24.9153 97.9737 22.3873 87.5567C21.8643 85.4211 21.7626 83.7939 21.719 82.2103C21.2686 67.6382 30.5669 54.8676 37.1628 46.0197C43.6861 37.2736 48.0883 33.6705 46.8824 28.7453C46.185 25.8832 43.7442 23.1664 40.8676 22.4254C31.9471 20.1009 20.949 37.23 19.1184 40.1647C11.4328 50.4073 4.95309 70.2678 12.9728 87.5713C14.6146 91.1308 21.4575 104.628 36.8577 110.032C39.6617 111.02 52.5921 115.553 63.997 109.262C70.2297 105.834 73.5277 100.531 76.6368 95.5329C84.0464 83.6631 82.3465 76.3988 89.5527 71.9822C92.6472 70.0935 97.9356 68.2048 100.987 70.631C106.217 74.8152 104.009 86.5543 103.674 88.1234C99.8534 106.008 81.838 115.408 80.574 116.033C61.8032 125.476 39.1823 120.406 24.494 109.597C11.9558 100.371 6.94351 88.2687 4.92405 83.1837C2.83194 77.9534 -3.69138 60.8533 2.81739 41.4868C7.49558 27.5685 20.7892 6.83633 37.8893 7.60634C47.202 8.02767 57.648 14.8125 58.8975 22.8903C59.9 29.3119 54.568 32.0578 45.3279 46.4846C38.6447 56.9161 30.5378 69.9627 33.9084 82.5735C34.3007 84.0554 36.4073 91.9008 42.2333 93.6733C47.5943 95.315 54.4372 91.3051 57.9677 86.2637C66.7719 73.682 55.091 54.3446 61.469 50.3928C62.6894 49.6373 64.8687 49.2596 69.0239 51.2936C70.6656 51.6568 73.1354 52.1072 76.1574 52.2089C80.2835 52.3541 92.8942 52.79 97.8194 45.2642C101.074 40.2955 99.4902 34.1354 98.7056 31.0554C95.7854 19.6359 84.9326 9.69844 79.1648 11.7324C76.6804 12.6041 74.7772 15.815 75.1694 18.401C75.8087 22.5417 81.9542 22.2511 87.3879 28.8325C88.7391 30.4887 92.7054 35.2977 91.1653 39.4964C89.9449 42.8089 85.9351 44.0148 84.7292 44.378C79.5135 45.9471 72.4962 44.4071 68.9658 39.9323C64.2149 33.932 70.2879 28.3966 66.307 18.7206C62.2681 8.89937 52.1272 5.18007 51.27 4.8895C45.3569 2.85551 40.1266 3.52382 37.5406 4.04685C43.2212 1.95474 59.8709 -3.31911 79.0485 3.02985C80.7048 3.58194 109.82 13.7374 118.363 42.8525C122.416 56.6837 119.932 68.321 118.871 73.0137C113.844 95.1842 98.5604 107.911 93.4608 111.819" fill="url(#paint0_linear_6_288)"/>
<defs>
<linearGradient id="paint0_linear_6_288" x1="120.6" y1="0" x2="-23.9503" y2="48.5293" gradientUnits="userSpaceOnUse">
<stop stop-color="#CC00FF"/>
<stop offset="1" stop-color="#8000FF"/>
</linearGradient>
</defs>
</svg>
